<svg width="100%" height="100%" viewBox="0 0 30 30" fill="none" xmlns="http://www.w3.org/2000/svg">
<circle cx="15" cy="15" r="15" fill="url(#paint0_linear_917_14)"/>
<circle cx="15" cy="17" r="12" fill="url(#paint1_linear_917_14)"/>
<path fill-rule="evenodd" clip-rule="evenodd" d="M15 1C7.265 1 1 7.19406 1 14.8415C1 20.9663 5.0075 26.1396 10.5725 27.9736C11.2725 28.0947 11.535 27.6794 11.535 27.3161C11.535 26.9874 11.5175 25.8973 11.5175 24.7381C8 25.3783 7.09 23.8903 6.81 23.1117C6.6525 22.7138 5.97 21.4854 5.375 21.1566C4.885 20.8971 4.185 20.2569 5.3575 20.2396C6.46 20.2223 7.2475 21.2431 7.51 21.6584C8.77 23.7519 10.7825 23.1636 11.5875 22.8003C11.71 21.9006 12.0775 21.295 12.48 20.949C9.365 20.603 6.11 19.4091 6.11 14.1148C6.11 12.6095 6.6525 11.3638 7.545 10.3949C7.405 10.0489 6.915 8.63011 7.685 6.72691C7.685 6.72691 8.8575 6.36357 11.535 8.14566C12.655 7.83422 13.845 7.67851 15.035 7.67851C16.225 7.67851 17.415 7.83422 18.535 8.14566C21.2125 6.34627 22.385 6.72691 22.385 6.72691C23.155 8.63011 22.665 10.0489 22.525 10.3949C23.4175 11.3638 23.96 12.5922 23.96 14.1148C23.96 19.4265 20.6875 20.603 17.5725 20.949C18.08 21.3816 18.5175 22.212 18.5175 23.5097C18.5175 25.361 18.5 26.8489 18.5 27.3161C18.5 27.6794 18.7625 28.112 19.4625 27.9736C22.2417 27.0459 24.6567 25.2799 26.3676 22.9242C28.0785 20.5684 28.9992 17.7416 29 14.8415C29 7.19406 22.735 1 15 1Z" fill="#121212"/>
<path fill-rule="evenodd" clip-rule="evenodd" d="M15 1C7.265 1 1 7.19406 1 14.8415C1 20.9663 5.0075 26.1396 10.5725 27.9736C11.2725 28.0947 11.535 27.6794 11.535 27.3161C11.535 26.9874 11.5175 25.8973 11.5175 24.7381C8 25.3783 7.09 23.8903 6.81 23.1117C6.6525 22.7138 5.97 21.4854 5.375 21.1566C4.885 20.8971 4.185 20.2569 5.3575 20.2396C6.46 20.2223 7.2475 21.2431 7.51 21.6584C8.77 23.7519 10.7825 23.1636 11.5875 22.8003C11.71 21.9006 12.0775 21.295 12.48 20.949C9.365 20.603 6.11 19.4091 6.11 14.1148C6.11 12.6095 6.6525 11.3638 7.545 10.3949C7.405 10.0489 6.915 8.63011 7.685 6.72691C7.685 6.72691 8.8575 6.36357 11.535 8.14566C12.655 7.83422 13.845 7.67851 15.035 7.67851C16.225 7.67851 17.415 7.83422 18.535 8.14566C21.2125 6.34627 22.385 6.72691 22.385 6.72691C23.155 8.63011 22.665 10.0489 22.525 10.3949C23.4175 11.3638 23.96 12.5922 23.96 14.1148C23.96 19.4265 20.6875 20.603 17.5725 20.949C18.08 21.3816 18.5175 22.212 18.5175 23.5097C18.5175 25.361 18.5 26.8489 18.5 27.3161C18.5 27.6794 18.7625 28.112 19.4625 27.9736C22.2417 27.0459 24.6567 25.2799 26.3676 22.9242C28.0785 20.5684 28.9992 17.7416 29 14.8415C29 7.19406 22.735 1 15 1Z" fill="white" fill-opacity="0.08"/>
<path d="M19 14C19 15.3333 18.5521 16 17.9997 16C17.4472 16 17 15.3333 17 14C17 12.6667 17.4472 12 17.9997 12C18.5521 12 19 12.6667 19 14Z" fill="#252525"/>
<path d="M13 14C13 15.3333 12.5521 16 11.9997 16C11.4472 16 11 15.3333 11 14C11 12.6667 11.4472 12 11.9997 12C12.5521 12 13 12.6667 13 14Z" fill="#252525"/>
<defs>
<linearGradient id="paint0_linear_917_14" x1="14.5" y1="-21.5" x2="15" y2="28" gradientUnits="userSpaceOnUse">
<stop offset="0.078125" stop-color="#AA771C" stop-opacity="0"/>
<stop offset="0.307292" stop-color="#FBF5B7" stop-opacity="0.286458"/>
<stop offset="0.53125" stop-color="#B38728" stop-opacity="0.46875"/>
<stop offset="0.713542" stop-color="#FCF6BA" stop-opacity="0.713542"/>
<stop offset="1" stop-color="#AA771C"/>
</linearGradient>
<linearGradient id="paint1_linear_917_14" x1="15" y1="-10.6" x2="15" y2="29" gradientUnits="userSpaceOnUse">
<stop stop-color="#BF953F"/>
<stop offset="0.234375" stop-color="#FCF6BA"/>
<stop offset="0.515625" stop-color="#B38728"/>
<stop offset="0.78125" stop-color="#FBF5B7"/>
<stop offset="1" stop-color="#AA771C"/>
</linearGradient>
</defs>
</svg>
