<svg width="30" height="38" viewBox="0 0 30 38" fill="none" xmlns="http://www.w3.org/2000/svg">
<ellipse cx="15.0002" cy="19" rx="15.0002" ry="19" fill="url(#paint0_linear_930_43)"/>
<ellipse cx="15.0002" cy="18.9999" rx="14.0002" ry="17.7333" fill="#121212"/>
<ellipse cx="15.0002" cy="18.9999" rx="14.0002" ry="17.7333" fill="white" fill-opacity="0.07"/>
<g clip-path="url(#clip0_930_43)">
<path d="M22.6084 12.9765C22.3017 12.678 21.9901 12.3813 21.695 12.0713C21.1098 11.4561 20.5479 10.8184 19.9511 10.2147C19.4088 9.66763 18.8396 9.14543 18.4145 8.49558C18.3782 8.44793 18.3387 8.40283 18.2961 8.36062C17.744 7.7442 17.1919 7.13022 16.6466 6.50893C16.443 6.27732 16.4693 6.27854 16.608 5.99525C16.792 5.61835 16.9012 5.21773 16.608 4.84022C16.3835 4.55086 16.1602 4.25359 15.8142 4.08155C15.7424 4.04629 15.651 3.96361 15.6461 3.89918C15.6142 3.48337 15.5983 3.06634 15.594 2.64992C15.594 2.5715 15.594 2.54678 15.594 2.54678V2.454C15.594 2.454 15.563 2.29312 15.5061 2.23107C15.4492 2.16903 15.41 2.15081 15.41 2.15081C15.41 2.15081 15.3139 2.01708 15.0977 2.01708C14.9163 1.99771 15 1.99999 14.6334 2.01709C14.4064 2.06636 14.2494 2.18974 14.2494 2.18974C14.2494 2.18974 14.1925 2.24903 14.1442 2.41345C14.1152 2.51225 14.0895 2.60011 14.096 2.68822C14.1052 3.09491 14.1003 3.5016 14.1003 3.90769C14.0381 3.94835 13.9738 3.98589 13.9077 4.02015C13.5194 4.19766 13.2575 4.5156 12.9999 4.83292C12.9192 4.93439 12.8692 5.05643 12.8557 5.18491C12.8318 5.49312 12.8428 5.80254 13.0508 6.06637C13.0883 6.12662 13.1193 6.1906 13.1434 6.25726C12.8716 6.6062 12.6085 6.95331 12.3361 7.2907C12.1171 7.56305 11.873 7.81594 11.6663 8.09618C11.3843 8.48268 11.0737 8.84783 10.737 9.1886C10.2211 9.70471 9.72973 10.2439 9.22428 10.7692C8.5393 11.4824 7.85166 12.1931 7.16136 12.9011C6.90618 13.1613 6.84791 13.6677 7.08714 13.9345C7.18946 14.0429 7.25117 14.1829 7.26196 14.3309C7.27423 14.4695 7.30551 14.6063 7.3233 14.7449C7.33802 14.861 7.37974 14.9619 7.4969 15.002C7.63553 15.0501 7.6613 15.1498 7.67541 15.2786C7.76374 16.0805 7.85943 16.8817 7.95267 17.6829C7.97291 17.8604 7.98395 18.0325 7.89869 18.2075C7.85023 18.3072 7.85452 18.441 7.8625 18.5583C7.90728 19.2629 7.97046 19.9668 8.00542 20.672C8.00824 20.7859 8.03533 20.8979 8.08491 21.0007C8.13449 21.1035 8.20544 21.1947 8.29311 21.2684C8.47714 21.4361 8.64583 21.6234 8.70472 21.8793C8.80532 22.3152 8.92064 22.748 9.00651 23.1863C9.1703 24.0258 9.3169 24.8678 9.47148 25.7085C9.50461 25.8873 9.4586 26.021 9.32856 26.1651C9.13079 26.3882 8.95631 26.6306 8.80777 26.8885C8.70839 27.0633 8.66677 27.2647 8.68877 27.4642C8.72434 27.8605 8.74459 28.2599 8.74152 28.6575C8.73416 29.4836 8.70901 30.3092 8.68754 31.1347C8.68754 31.2502 8.66116 31.3651 8.64705 31.4825C8.51272 31.508 8.40537 31.5359 8.29679 31.5475C8.19676 31.5562 8.10063 31.59 8.01753 31.6459C7.93443 31.7018 7.86713 31.7777 7.82201 31.8666C7.65393 32.1524 7.64657 32.4496 7.69258 32.7609C7.73859 33.0721 7.92936 33.3262 8.04468 33.612C8.10739 33.7708 8.225 33.9025 8.37654 33.9834C8.86727 34.2551 9.37456 34.5013 9.93829 34.5913C10.5916 34.6971 11.2443 34.815 11.9012 34.8886C12.6987 34.9773 13.501 35.0284 14.3021 35.091C15.0867 35.1518 15.8663 35.0448 16.6478 35.0126C16.9386 35.001 17.2306 34.9852 17.5183 34.9457C18.1151 34.8643 18.7126 34.7804 19.3045 34.6697C19.7756 34.5816 20.2566 34.5214 20.7007 34.3171C20.9021 34.2271 21.109 34.1498 21.3202 34.0855C21.512 34.0197 21.6715 33.8844 21.7668 33.7068C21.8706 33.5249 21.9604 33.3355 22.0355 33.1402C22.1581 32.8363 22.2649 32.5226 22.2238 32.1828C22.1808 31.8229 21.9704 31.6071 21.6104 31.5548C21.503 31.539 21.3963 31.5171 21.2626 31.494C21.2405 31.1536 21.208 30.8253 21.2012 30.5007C21.1767 29.528 21.1687 28.5493 21.1399 27.5742C21.1252 27.0125 20.8822 26.5408 20.5013 26.1341C20.3829 26.0082 20.3173 25.8781 20.3381 25.7085C20.3719 25.4417 20.3946 25.1736 20.4381 24.9085C20.5608 24.162 20.7129 23.4198 20.8129 22.6708C20.8573 22.2846 21.0337 21.925 21.3129 21.652C21.7091 21.2519 21.6907 21.2428 21.7128 20.6908C21.7423 19.9753 21.7913 19.2598 21.8263 18.5437C21.8312 18.4483 21.841 18.317 21.787 18.2604C21.6459 18.1133 21.6643 17.9504 21.6864 17.7863C21.7838 16.9352 21.886 16.0841 21.9931 15.233C22.0023 15.1613 22.0367 15.058 22.0901 15.0318C22.3679 14.8975 22.3747 14.6342 22.3968 14.3966C22.4115 14.2203 22.4391 14.0677 22.5556 13.9321C22.6069 13.8704 22.6515 13.8036 22.6887 13.7327C22.8133 13.4987 22.7685 13.1309 22.6084 12.9765ZM21.511 13.5704C21.1092 13.8361 20.6675 14.0209 20.1921 14.1814C20.1308 13.999 20.1793 13.8877 20.2983 13.8348C20.6264 13.6896 20.9608 13.5589 21.2945 13.4257C21.4024 13.3826 21.4625 13.4409 21.511 13.5704ZM21.2313 14.1522C21.1626 14.2458 20.9614 14.2847 20.8117 14.2336C20.873 14.0896 21.0423 13.9759 21.162 13.9947C21.1792 13.997 21.1956 14.0036 21.2096 14.014C21.2235 14.0244 21.2345 14.0382 21.2415 14.0541C21.2484 14.0699 21.2512 14.0873 21.2494 14.1044C21.2476 14.1216 21.2414 14.1381 21.2313 14.1522ZM19.5137 13.5552C19.3045 13.2513 19.3297 13.1023 19.5996 12.9801C19.7781 12.8987 19.9676 12.8354 20.1658 12.7576C20.2063 12.8689 20.2394 12.9485 20.2627 13.0312C20.2777 13.1042 20.2881 13.1781 20.294 13.2525L19.5137 13.5552ZM21.0282 12.5218C21.127 12.5929 21.2466 12.6902 21.2693 12.7953C21.3 12.9357 21.1288 12.9625 21.0239 13.0105C20.9086 13.064 20.7872 13.1047 20.6412 13.1619L20.3958 12.6756C20.5614 12.6099 20.678 12.554 20.8013 12.5181C20.8743 12.4968 20.9773 12.4835 21.0276 12.5199L21.0282 12.5218ZM20.735 12.1412L20.2701 12.4038L19.986 11.5935C20.332 11.6725 20.4964 11.9169 20.7356 12.1394L20.735 12.1412ZM20.0762 12.4452L19.5309 12.6701C19.4315 12.3826 19.5155 11.985 19.729 11.737C19.9069 11.9333 19.975 12.174 20.0756 12.4415L20.0762 12.4452ZM18.6997 10.8445C18.7893 10.8494 18.8911 10.8287 18.9672 10.8634C19.2033 10.9716 19.4303 11.0993 19.6591 11.2227C19.7036 11.2454 19.7425 11.2776 19.7732 11.3169C19.7845 11.3322 19.7921 11.3498 19.7953 11.3685C19.7985 11.3872 19.7972 11.4064 19.7916 11.4245C19.7791 11.4442 19.7625 11.4609 19.7429 11.4737C19.7234 11.4865 19.7013 11.495 19.6781 11.4987C19.6078 11.4974 19.5387 11.4799 19.4763 11.4476C19.2285 11.3163 18.9831 11.1795 18.7402 11.0372C18.7046 11.0166 18.6905 10.9607 18.6666 10.9211C18.677 10.892 18.6881 10.8664 18.6991 10.8409L18.6997 10.8445ZM18.9843 14.8902C18.9935 14.9102 18.9764 14.9431 18.9696 14.9808C18.8224 14.9862 18.8205 14.8592 18.7856 14.7844C18.4359 14.0452 18.0912 13.3035 17.7428 12.5631C16.9862 10.9469 16.2297 9.33024 15.4731 7.7132C15.4345 7.62992 15.4057 7.54116 15.3719 7.45484L15.4412 7.42201C15.4646 7.43721 15.4983 7.44754 15.5087 7.46882C16.6697 9.93937 17.828 12.4119 18.9837 14.8865L18.9843 14.8902ZM16.0534 14.8294C15.7019 15.3382 14.0807 15.3765 13.5881 14.8501C13.8838 14.7583 14.2015 14.923 14.5457 14.7388C14.3003 14.6069 14.093 14.6136 13.8961 14.5832C13.6864 14.5603 13.4804 14.5121 13.2826 14.4397C13.3188 14.4178 13.3544 14.3789 13.39 14.3789C14.353 14.3789 15.3157 14.3789 16.2779 14.3789C16.3031 14.3789 16.3276 14.4014 16.4135 14.444C15.9952 14.6446 15.5394 14.4774 15.1867 14.7431C15.4603 14.8999 15.7621 14.7747 16.0528 14.8233L16.0534 14.8294ZM14.2475 7.1825H15.3578C15.1486 7.39587 14.4935 7.4056 14.2475 7.1825ZM15.6584 12.7078C15.6853 12.7673 15.7043 12.83 15.7148 12.8944H15.0033V11.8701C15.0594 11.9085 15.111 11.9529 15.1572 12.0026C15.3274 12.2348 15.4938 12.4699 15.6566 12.7078H15.6584ZM14.98 11.2725C14.98 11.3673 14.9542 11.4604 14.8401 11.467C14.7058 11.4756 14.6751 11.3759 14.6739 11.2689C14.6702 11.0105 14.6604 10.7521 14.6739 10.495C14.6794 10.4002 14.7493 10.3084 14.7898 10.2154H14.8628C14.9027 10.3096 14.9701 10.402 14.9757 10.498C14.9916 10.757 14.9812 11.0141 14.9781 11.2725H14.98ZM14.6487 11.8196V12.8914H13.9126C14.1167 12.5091 14.363 12.1505 14.6469 11.8221L14.6487 11.8196ZM13.9519 13.2373C14.1672 13.2561 14.388 13.2172 14.6266 13.2038V13.7564C14.1339 13.8039 13.638 13.8075 13.1446 13.7674C13.3569 13.4482 13.5513 13.2057 13.95 13.2397L13.9519 13.2373ZM15.0309 13.7698C15.0204 13.5813 15.0106 13.4166 14.999 13.2172C15.3719 13.2111 15.7289 13.1984 16.0565 13.2956C16.2295 13.3473 16.3534 13.5637 16.4994 13.706L16.4528 13.7698H15.0309ZM16.1602 6.19768C16.151 6.27854 16.1252 6.35669 16.0845 6.42735C16.0438 6.49801 15.989 6.55969 15.9234 6.60863C15.8958 6.39525 15.97 6.29069 16.1602 6.19768ZM16.2436 5.884C16.2927 5.75695 16.3417 5.62929 16.4104 5.45239C16.4706 5.71135 16.4466 5.77519 16.2436 5.88582V5.884ZM15.651 4.19948C15.9817 4.40678 16.2963 4.63414 16.4896 4.98369C16.5166 5.03171 16.5031 5.10162 16.5117 5.20375C16.3338 4.99159 16.2123 4.82198 16.0657 4.6773C15.9191 4.53262 15.7461 4.40982 15.5664 4.2621C15.602 4.23657 15.6443 4.19523 15.651 4.20131V4.19948ZM16.0111 5.07487C16.0786 5.18419 16.1095 5.31185 16.0994 5.43962C16.0755 5.87488 15.8265 6.222 15.6007 6.57398C15.5652 6.6293 15.4695 6.66273 15.3959 6.67611C15.0202 6.74328 14.6355 6.74328 14.2598 6.67611C14.1862 6.66273 14.0899 6.63112 14.0537 6.57641C13.8316 6.23477 13.6022 5.89434 13.5513 5.47305C13.5366 5.38485 13.5431 5.29446 13.5703 5.20922C13.5975 5.12398 13.6446 5.04629 13.7077 4.98247C13.874 4.808 14.031 4.62563 14.2892 4.55693C14.6647 4.8694 15.037 4.86758 15.4179 4.55693C15.6731 4.66149 15.8553 4.86028 16.0123 5.0767L16.0111 5.07487ZM13.6961 6.53386L13.609 6.56608C13.555 6.46395 13.5004 6.36243 13.4464 6.26212C13.6384 6.29677 13.685 6.40741 13.6961 6.53811V6.53386ZM15.4492 3.88702C15.4603 4.15146 15.3492 4.35085 15.0934 4.54295L15.4492 3.88702ZM15.0977 3.81407H14.6217V2.89187H15.0977V3.81407ZM14.4064 2.36785C14.4469 2.24627 14.5211 2.13806 14.7168 2.15083C14.3856 2.56299 14.3991 3.04385 14.3488 3.57516C14.2905 3.48337 14.2524 3.45054 14.2494 3.41467C14.2193 3.05236 14.2948 2.70524 14.4064 2.36785ZM13.0845 5.2074C13.098 4.81894 13.3753 4.66697 13.5789 4.46575C13.9752 4.07425 14.4543 3.95875 15.0695 4.02501C14.9732 4.09371 14.937 4.13505 14.8935 4.1466C14.8344 4.15749 14.7741 4.16015 14.7143 4.1545C13.9782 4.13079 13.5532 4.58004 13.1912 5.12716C13.1814 5.14296 13.1612 5.15025 13.0845 5.20557V5.2074ZM13.3716 5.90649C13.1673 5.81348 13.1673 5.81348 13.1514 5.52594L13.2127 5.50345L13.3716 5.90649ZM12.7287 10.3375C12.7956 10.1935 12.8925 10.0634 12.9587 9.9193C13.109 9.59468 13.2452 9.26398 13.3937 8.93874C13.6084 8.46701 13.8286 7.9971 14.0494 7.5284C14.0785 7.48362 14.1134 7.44276 14.1531 7.40682L14.2193 7.44146C14.2159 7.48612 14.2078 7.53032 14.1954 7.57338C13.8273 8.48525 10.8406 14.7777 10.6793 14.9668C10.5793 14.8823 10.6572 14.802 10.6891 14.7333C10.9823 14.0999 11.2811 13.4689 11.5749 12.8354C11.9638 12.0014 12.3417 11.1673 12.7287 10.3357V10.3375ZM9.87818 11.3126C9.88593 11.2942 9.90007 11.2791 9.91805 11.2701C10.1965 11.1199 10.4701 10.9661 10.7578 10.8281C10.8051 10.8062 10.8946 10.8719 10.9645 10.8968C10.9351 10.9503 10.9191 11.0257 10.8731 11.0543C10.6621 11.1844 10.4437 11.3047 10.226 11.419C10.1413 11.4569 10.054 11.4886 9.96467 11.5138C9.92664 11.481 9.87941 11.4573 9.85978 11.4196C9.84444 11.3947 9.8653 11.3485 9.87818 11.3126ZM10.1634 13.0385C10.2928 13.1102 10.3241 13.3473 10.2248 13.4604C10.2002 13.4809 10.1713 13.4958 10.1403 13.5041C10.1092 13.5124 10.0767 13.5139 10.045 13.5084C9.79172 13.4616 9.55402 13.3534 9.3531 13.1935C9.38745 13.064 9.4218 12.9333 9.46106 12.7868C9.72605 12.8111 9.94749 12.9206 10.1616 13.0385H10.1634ZM9.58496 12.4525C9.64631 12.1886 9.76899 11.971 9.88799 11.7467C10.1137 11.8974 10.2303 12.3436 10.1291 12.6646L9.58496 12.4525ZM9.67084 11.5825C9.57208 11.8652 9.48682 12.1102 9.3856 12.402L8.92554 12.1546C9.13288 11.9199 9.31323 11.6907 9.66901 11.5825H9.67084ZM8.44401 12.6506C8.59798 12.481 8.69797 12.4561 8.92064 12.5388C9.02185 12.5765 9.12 12.6215 9.25495 12.678C9.16785 12.8543 9.09792 12.9935 9.01265 13.1643C8.82433 13.0853 8.64828 13.0233 8.48327 12.9388C8.34464 12.8713 8.33789 12.7631 8.44095 12.6506H8.44401ZM8.34096 13.4926C8.41518 13.4701 8.50351 13.4111 8.56179 13.4318C8.89978 13.5534 9.23655 13.6889 9.56166 13.8385C9.68434 13.8956 9.74568 14.0142 9.65121 14.1735C9.19036 14.0257 8.74823 13.8258 8.3336 13.5777L8.34096 13.4926ZM9.12 14.2373C8.95683 14.3212 8.70165 14.2665 8.65994 14.1388C8.63356 14.0567 8.68386 13.9826 8.7636 14.0051C8.9004 14.044 9.05559 14.0774 9.12 14.2373ZM8.04714 15.2555C8.46426 15.3954 8.85439 15.4987 9.12859 15.8677C9.54939 16.4367 10.0082 16.9771 10.456 17.5255C10.7057 17.8294 10.656 18.1942 10.675 18.5468C10.6681 18.5963 10.6451 18.6422 10.6094 18.6775C10.3867 18.9449 10.161 19.21 9.92541 19.489C9.46842 19.3431 9.0513 19.2027 8.62865 19.0799C8.46426 19.0319 8.40966 18.9382 8.39433 18.7814C8.34525 18.2568 8.28637 17.7334 8.23116 17.21C8.16982 16.6272 8.10848 16.044 8.04714 15.4604C8.04223 15.402 8.04714 15.3437 8.04714 15.2555ZM9.66594 15.9084C10.3444 15.9054 10.6535 16.2859 10.5904 17.0635C10.2352 16.6951 9.9659 16.2987 9.66594 15.9072V15.9084ZM9.35923 20.1972C9.3488 20.193 9.35555 20.1456 9.35248 20.0939C9.8015 20.1127 10.1659 20.3705 10.5793 20.4641C10.6265 20.475 10.6621 20.5377 10.7572 20.627C10.6296 20.6459 10.5677 20.675 10.5235 20.6586C10.1321 20.5091 9.74568 20.3535 9.35923 20.196V20.1972ZM10.5149 21.0915L9.86469 20.869C9.88063 20.7164 9.94443 20.6799 10.0536 20.6988C10.2898 20.7358 10.4444 20.8447 10.5149 21.0915ZM9.03044 19.6933C8.90587 19.6566 8.78477 19.6092 8.66853 19.5516C8.62375 19.5273 8.61147 19.444 8.58448 19.3881C8.63545 19.3684 8.68826 19.3537 8.74213 19.3443C8.78233 19.3461 8.82167 19.3565 8.85745 19.3747C9.47496 19.6057 10.0929 19.8365 10.7112 20.0671C10.8093 20.1036 10.8952 20.1401 10.8517 20.2981C10.237 20.0915 9.63281 19.8921 9.03044 19.6933ZM10.3481 19.6434L10.694 19.179L10.7707 19.2057C10.7971 19.3674 10.8241 19.5297 10.8596 19.7443L10.3481 19.6434ZM9.39542 22.1857C9.11938 21.8817 8.84335 21.5778 8.58448 21.2653C8.27226 20.886 8.17841 20.4319 8.18086 19.9541C8.18086 19.9212 8.21091 19.889 8.25876 19.7942C8.3201 19.9899 8.38635 20.1249 8.39801 20.2641C8.41678 20.4835 8.50429 20.6916 8.64828 20.8592C8.97707 21.2592 9.30586 21.6605 9.64508 22.052C9.72338 22.1279 9.81704 22.1866 9.91989 22.224C10.3587 22.4206 10.7991 22.6124 11.2412 22.7997C11.3866 22.8605 11.4743 22.9413 11.4252 23.128C11.3765 23.1171 11.3286 23.1031 11.2817 23.086C10.7394 22.852 10.1965 22.6197 9.65796 22.3784C9.55842 22.3321 9.46918 22.2666 9.39542 22.1857ZM15.1989 16.3096C15.4958 16.3096 15.8124 16.3096 16.1356 16.3096C16.195 16.3196 16.2554 16.322 16.3154 16.3169C16.6178 16.2343 16.792 16.4027 16.9729 16.6057C17.2063 16.8664 17.4548 17.1134 17.717 17.3455C17.8176 17.4271 17.8981 17.5302 17.9526 17.6471C18.0071 17.7639 18.0342 17.8916 18.0317 18.0203C18.0317 18.1595 18.0317 18.2993 18.0188 18.4379C18.0119 18.4949 17.9839 18.5473 17.9403 18.5851C17.6949 18.7729 17.4428 18.9528 17.1925 19.1352C16.8619 19.3784 16.5325 19.6215 16.197 19.8562C16.131 19.8977 16.0549 19.9206 15.9768 19.9225C15.7774 19.9316 15.5768 19.9255 15.3633 19.9255C15.486 19.6671 15.6087 19.444 15.6897 19.2057C15.7871 18.9529 15.7992 18.6756 15.724 18.4154C15.6937 18.5283 15.6562 18.6392 15.6118 18.7474C15.5987 18.7664 15.581 18.782 15.5603 18.7926C15.5397 18.8032 15.5167 18.8085 15.4934 18.8082C15.4572 18.8009 15.402 18.7395 15.4063 18.7091C15.4511 18.3972 15.31 18.1236 15.2333 17.8373C15.1677 17.5942 15.286 17.3905 15.3787 17.1826C15.4136 17.1048 15.4646 17.0337 15.5351 16.9133C15.164 16.9905 14.983 17.2404 14.8149 17.4677C14.6469 17.6951 14.5334 17.954 14.3856 18.2185C14.2163 18.1668 14.2426 18.0142 14.25 17.8847C14.2574 17.7553 14.2917 17.6136 14.3156 17.4677C13.685 17.81 13.6906 18.9796 14.3224 19.8927L13.9973 19.92C13.7341 19.9425 13.5022 19.92 13.2783 19.7255C12.9103 19.4069 12.4999 19.1316 12.1049 18.8416C11.9681 18.7413 11.8227 18.6519 11.643 18.5316C11.643 18.2981 11.6301 18.0319 11.6503 17.768C11.6686 17.6619 11.7203 17.5642 11.7982 17.489C12.1576 17.1133 12.5251 16.7455 12.8943 16.3802C12.9436 16.3345 13.0074 16.3074 13.0747 16.3036C13.6752 16.2993 14.2764 16.3036 14.8769 16.3036C14.9102 16.3094 14.9426 16.3196 14.9732 16.334C14.9395 16.4555 14.907 16.5723 14.8677 16.7115C15.1272 16.6714 15.0622 16.4337 15.1989 16.3096ZM19.8609 27.3949C19.8799 27.3845 19.9339 27.438 20.0198 27.4921C19.8928 27.5633 19.8057 27.6174 19.7131 27.6575C19.702 27.6624 19.6585 27.5967 19.6303 27.559C19.7022 27.4993 19.7782 27.4447 19.8578 27.3955L19.8609 27.3949ZM19.3045 27.5383C19.2678 27.5471 19.2301 27.5516 19.1923 27.5517C19.1739 27.5308 19.1627 27.5046 19.1604 27.4769C19.1618 27.4536 19.168 27.4308 19.1786 27.41C19.1891 27.3891 19.2038 27.3705 19.2217 27.3554C19.4192 27.2368 19.6217 27.1274 19.8235 27.0161C19.8407 27.0064 19.8646 26.993 19.8799 26.9979C19.9229 27.0131 19.9842 27.0265 19.9983 27.0587C20.0048 27.0807 20.0055 27.104 20.0003 27.1263C19.9952 27.1487 19.9844 27.1693 19.9689 27.1864C19.7462 27.3098 19.5235 27.4234 19.3015 27.5389L19.3045 27.5383ZM19.7272 26.9146C19.4272 27.0721 19.1101 27.1961 18.7997 27.3329C18.6991 27.3772 18.6059 27.3833 18.5249 27.2538C18.5611 27.2095 18.5924 27.142 18.6476 27.1122C18.9862 26.9219 19.3266 26.7335 19.6732 26.5566C19.8039 26.4903 19.9529 26.4386 20.094 26.5809C20.0259 26.7602 19.864 26.8417 19.7241 26.9152L19.7272 26.9146ZM20.0554 24.6003C20.0915 24.8581 20.0198 25.0739 19.9787 25.2903C19.9695 25.3365 19.9051 25.3821 19.856 25.4076C19.6971 25.4891 19.5327 25.5608 19.3186 25.6605C19.3487 25.3657 19.3732 25.1292 19.3996 24.8702L20.0554 24.6003ZM19.4358 24.6003C19.4603 24.2824 19.4812 24.0113 19.5051 23.7073L20.2829 23.4033C20.2363 23.7109 20.2026 23.9626 20.1566 24.2119C20.1488 24.2392 20.1354 24.2646 20.1174 24.2867C20.0994 24.3087 20.077 24.3269 20.0517 24.3401C19.8615 24.4271 19.6683 24.5018 19.4327 24.5997L19.4358 24.6003ZM19.6364 26.0411C19.7044 26.0169 19.7747 25.9994 19.8462 25.9888L19.8781 26.0532C19.803 26.1087 19.7248 26.1599 19.6438 26.2064C19.242 26.4107 18.8328 26.6028 18.4347 26.8143C18.1733 26.9624 17.8771 27.0396 17.5759 27.038C17.1649 27.0307 16.7533 27.0587 16.3417 27.0702C16.282 27.0746 16.222 27.0697 16.1638 27.0557C16.1469 27.0466 16.1325 27.0335 16.1218 27.0176C16.1111 27.0017 16.1045 26.9835 16.1025 26.9645C16.1025 26.9329 16.1332 26.8781 16.1589 26.8727C16.2471 26.8558 16.3366 26.8469 16.4264 26.8459C16.8079 26.8368 17.1901 26.8204 17.5716 26.8277C17.9164 26.8338 18.2194 26.7061 18.52 26.5712C18.8954 26.3991 19.2634 26.2143 19.6315 26.0404L19.6364 26.0411ZM16.3914 28.3633C16.3301 28.4545 16.246 28.497 16.1178 28.4162V27.2818H16.6797C16.7325 27.6842 16.6129 28.0368 16.3884 28.3627L16.3914 28.3633ZM16.07 24.3006C16.07 23.9881 16.0234 23.9359 15.7019 23.9359C15.1098 23.9306 14.5168 23.9306 13.923 23.9359C13.6163 23.9359 13.5709 23.9875 13.5709 24.2824C13.5709 24.9298 13.5765 25.5772 13.5758 26.2246C13.5758 26.3414 13.555 26.4581 13.5452 26.5596C13.5285 26.5696 13.5108 26.578 13.4924 26.5845C12.8177 26.6654 12.7453 26.621 12.6336 25.973C12.557 25.5231 12.4729 25.0666 12.6214 24.6143C12.749 24.2252 12.933 23.8708 13.3673 23.7462C13.5429 23.7053 13.7224 23.6826 13.9028 23.6787C14.6238 23.6226 15.3485 23.6358 16.0669 23.7182C16.1771 23.7276 16.284 23.7595 16.3812 23.8118C16.4783 23.8641 16.5634 23.9357 16.6313 24.0222C16.8152 24.2468 16.9402 24.5131 16.995 24.7973C17.0815 25.2751 16.9742 26.1395 16.7435 26.5955L16.0639 26.6319C16.0669 25.8125 16.0682 25.0562 16.0669 24.3L16.07 24.3006ZM15.7056 26.8745C15.7016 26.903 15.6956 26.9313 15.6878 26.959C15.4627 27.0064 15.4198 26.9748 15.4566 26.7894C15.5014 26.5651 15.5014 26.5651 15.3713 26.3639C15.4468 26.3256 15.5167 26.2666 15.5915 26.2593C15.6921 26.2484 15.7989 26.373 15.7461 26.4161C15.5541 26.5718 15.7142 26.725 15.7056 26.8745ZM14.9922 25.3286H15.6271V25.9328H14.9922V25.3286ZM14.9855 25.0599C14.9757 24.8775 14.9665 24.7103 14.9554 24.5067H15.624V25.0599H14.9855ZM14.6493 25.0562H14.0144V24.5061H14.6561C14.7291 24.6951 14.688 24.866 14.6493 25.0562ZM14.6548 25.2933V25.9298H14.0151V25.3341L14.6548 25.2933ZM9.90456 27.1949C9.88738 27.1798 9.87403 27.161 9.86561 27.1398C9.85719 27.1187 9.85393 27.0959 9.8561 27.0733C9.86284 27.038 9.91744 27.0125 9.94259 26.9888C9.97938 26.9977 10.0155 27.0093 10.0505 27.0234C10.2425 27.1298 10.437 27.2332 10.6235 27.3487C10.6615 27.3724 10.6701 27.4435 10.6922 27.4927C10.6407 27.5073 10.5756 27.5499 10.5394 27.5329C10.3235 27.4271 10.1119 27.3134 9.90456 27.1949ZM10.226 27.5955C10.1861 27.6168 10.1272 27.6666 10.1107 27.6563C10.0331 27.6048 9.96421 27.5416 9.9064 27.469C9.89168 27.4502 9.93768 27.3845 9.95547 27.3402L10.0438 27.3657L10.226 27.5955ZM9.8377 26.7025C9.80518 26.6739 9.79291 26.6216 9.74691 26.5347C9.86959 26.5243 9.97448 26.4879 10.0536 26.5146C10.5125 26.666 10.9167 26.9213 11.3074 27.1985C11.3197 27.207 11.3185 27.2344 11.3258 27.2593C11.3193 27.2805 11.3083 27.3 11.2934 27.3165C11.2785 27.333 11.2602 27.3461 11.2397 27.3548C11.2193 27.3636 11.1971 27.3679 11.1748 27.3674C11.1525 27.3668 11.1306 27.3615 11.1105 27.3517C10.667 27.1748 10.2082 27.0222 9.8377 26.7025ZM9.81193 24.3426C9.78615 24.3296 9.7634 24.3114 9.74512 24.2892C9.72685 24.267 9.71346 24.2413 9.70581 24.2137C9.65858 23.9632 9.62484 23.7103 9.5776 23.3991C9.83524 23.503 10.0383 23.5815 10.2364 23.6678C10.262 23.6801 10.2847 23.6976 10.303 23.7192C10.3213 23.7407 10.3347 23.7659 10.3425 23.793C10.3781 24.0453 10.4002 24.2988 10.4321 24.6034C10.1929 24.5043 10.0009 24.4301 9.81193 24.3426ZM10.4775 25.035C10.502 25.2173 10.5125 25.4058 10.5339 25.6575C10.3119 25.5541 10.1401 25.48 9.9751 25.3936C9.94963 25.38 9.92713 25.3614 9.90892 25.3391C9.89071 25.3168 9.87713 25.2911 9.86898 25.2635C9.82972 25.0623 9.80764 24.8581 9.77206 24.6271C10.0205 24.6562 10.2076 24.7638 10.3953 24.8587C10.4419 24.8824 10.4695 24.9717 10.4775 25.035ZM9.99289 26.1942C9.90517 26.1499 9.78433 26.1195 9.7831 25.9456C9.88799 25.9851 9.97081 26.0064 10.0475 26.0459C10.364 26.1949 10.6842 26.3371 10.9928 26.5018C11.4186 26.7253 11.8955 26.8361 12.3772 26.8234C12.6379 26.8234 12.8986 26.8234 13.1593 26.8265C13.2299 26.8265 13.3004 26.8234 13.3697 26.8265C13.4519 26.8332 13.5482 26.8502 13.5305 26.9541C13.5243 26.9918 13.4274 27.0386 13.371 27.0392C12.8606 27.0437 12.3494 27.0421 11.8374 27.0344C11.7476 27.0359 11.6585 27.0183 11.5761 26.9827C11.0461 26.7258 10.5184 26.4629 9.99289 26.1942ZM11.5264 25.0678L10.7063 24.7213C10.6805 24.4289 10.6566 24.1541 10.6278 23.8216C10.9216 23.9432 11.1798 24.0398 11.4289 24.1511C11.4538 24.1651 11.4751 24.1845 11.4912 24.2079C11.5074 24.2313 11.5179 24.258 11.5221 24.286C11.5344 24.5316 11.5289 24.7778 11.5289 25.0678H11.5264ZM11.5878 25.4666C11.6 25.6526 11.5921 25.8398 11.5921 26.0477C11.5383 26.0632 11.4823 26.0692 11.4264 26.0654C10.8419 25.9043 10.7707 25.8131 10.7474 25.2107C10.7474 25.1499 10.7474 25.0958 10.7474 24.9985C11.0155 25.1079 11.2553 25.1991 11.4878 25.3067C11.5157 25.3245 11.5393 25.3482 11.5568 25.3762C11.5743 25.4042 11.5853 25.4357 11.589 25.4684L11.5878 25.4666ZM12.8882 27.2903H13.4894C13.5446 27.4648 13.555 28.0867 13.5041 28.4453C13.3587 28.5438 13.2587 28.4642 13.1802 28.3505C12.9631 28.0415 12.8604 27.6676 12.8894 27.2921L12.8882 27.2903ZM14.0071 20.6738C13.6666 20.6647 13.3256 20.658 12.9857 20.6337C12.7458 20.6145 12.5071 20.5829 12.2705 20.5389C12.1288 20.5146 12.0251 20.4446 12.103 20.2349C12.3374 20.2264 12.5852 20.2106 12.8324 20.21C14.1488 20.21 15.465 20.21 16.7809 20.21C17.0392 20.21 17.2974 20.224 17.5845 20.2325C17.5232 20.5237 17.5054 20.5364 17.2705 20.5735C16.7551 20.66 16.2323 20.6944 15.7099 20.6763C15.5989 20.6714 15.4799 20.6629 15.4566 20.8434C15.5164 20.8636 15.578 20.8778 15.6406 20.886C16.0087 20.8981 16.3834 20.9054 16.7546 20.9133C16.8447 20.9085 16.935 20.9085 17.0251 20.9133C17.0999 20.9225 17.2232 20.9419 17.233 20.9802C17.2419 21.0212 17.2416 21.0636 17.2322 21.1045C17.2228 21.1453 17.2044 21.1836 17.1784 21.2167C16.9795 21.4265 16.7668 21.6231 16.5417 21.8051C16.1994 22.0726 15.7768 22.1626 15.3609 22.2222C14.3027 22.3729 13.398 22.0684 12.6931 21.2495C12.6665 21.2197 12.6433 21.1871 12.6238 21.1523C12.5441 21.007 12.584 20.9219 12.7526 20.9091C12.9624 20.8969 13.1734 20.9091 13.3839 20.9006C13.6519 20.8939 13.9194 20.8823 14.188 20.8726C14.1997 20.7127 14.1249 20.6787 14.0083 20.675L14.0071 20.6738ZM12.0601 19.8902C11.8393 19.8763 11.8037 19.8355 11.7785 19.6246C11.7583 19.4592 11.7485 19.2927 11.7289 19.0647L12.7293 19.8373L12.7115 19.8927C12.4956 19.8939 12.2779 19.9042 12.0613 19.8914L12.0601 19.8902ZM14.4579 19.3121C14.3297 19.1188 14.2218 18.9255 14.2255 18.655C14.6585 18.9449 14.6223 18.8762 14.9616 18.5875L15.0554 19.2161L15.2676 19.227C15.2499 19.2651 15.2294 19.3019 15.2063 19.337C14.945 19.6556 14.6843 19.6531 14.4592 19.3133L14.4579 19.3121ZM16.9325 19.8343L17.9231 19.0629C17.9023 19.2993 17.8833 19.4817 17.8716 19.6647C17.8729 19.6946 17.8678 19.7245 17.8566 19.7523C17.8455 19.7801 17.8285 19.8053 17.8068 19.8262C17.7852 19.8471 17.7593 19.8632 17.7309 19.8735C17.7026 19.8838 17.6723 19.8881 17.6422 19.886C17.4152 19.8927 17.1876 19.886 16.9607 19.886C16.9484 19.8702 16.9392 19.8519 16.9325 19.8343ZM16.3516 23.421H13.2317C13.2133 23.1596 13.3599 23.0349 13.5581 22.9608C14.1972 22.7207 14.8518 22.6052 15.5326 22.748C15.6994 22.7783 15.8635 22.8215 16.0234 22.8775C16.3135 22.9906 16.4037 23.1584 16.3491 23.4228L16.3516 23.421ZM18.282 25.3961C18.2869 25.359 18.3433 25.3152 18.3826 25.2976C18.6095 25.1991 18.8402 25.1073 19.1242 24.9906C19.1033 25.2605 19.0898 25.4769 19.0665 25.6903C19.0641 25.7143 19.0566 25.7375 19.0446 25.7584C19.0326 25.7794 19.0162 25.7976 18.9966 25.8119C18.7776 25.9201 18.5531 26.0186 18.2936 26.1365C18.2047 25.8556 18.2513 25.624 18.282 25.3961ZM19.15 24.7237L18.32 25.072C18.32 24.7681 18.3133 24.5061 18.3255 24.2441C18.3313 24.2117 18.3445 24.1811 18.3642 24.1546C18.3839 24.1281 18.4095 24.1065 18.439 24.0915C18.6764 23.9948 18.9205 23.9146 19.2248 23.8064C19.1935 24.1669 19.1714 24.4404 19.1481 24.7237H19.15ZM18.4047 20.337C18.3703 20.813 18.3261 21.2878 18.2764 21.7626C18.2621 21.8374 18.2261 21.9065 18.1728 21.9614C17.9661 22.1906 17.7526 22.4143 17.5385 22.638C17.3545 22.8295 17.1091 22.8033 16.8803 22.8416L16.8472 22.7808C17.0153 22.5492 17.1791 22.3134 17.3557 22.0872C17.4063 22.0412 17.4712 22.0137 17.5397 22.0094C17.9078 21.9553 17.9446 21.9486 18.0047 21.5839C18.0771 21.1425 18.1274 20.6969 18.1648 20.2519C18.2752 19.0033 18.3752 17.7546 18.4795 16.506C18.4893 16.3923 18.4648 16.2628 18.5948 16.1948C18.7414 16.2385 18.7138 16.3492 18.7071 16.4416C18.6635 17.0495 18.6218 17.6525 18.5678 18.2568C18.5267 18.7127 18.4605 19.1686 18.4212 19.6215C18.3979 19.8592 18.4212 20.1 18.4047 20.337ZM18.0753 17.0653L18.0139 17.0908L17.2643 16.368C17.5412 16.2805 17.8397 16.2867 18.1127 16.3856L18.0753 17.0653ZM11.6191 17.0793C11.5117 16.8501 11.5497 16.6191 11.5577 16.3358H12.3386C12.257 16.5157 11.9957 16.7881 11.6191 17.0793ZM11.6013 21.3304C11.612 21.4191 11.6286 21.507 11.651 21.5936C11.7276 21.9352 11.7515 21.9541 12.0975 22.0106C12.1636 22.0175 12.2255 22.046 12.2736 22.0915C12.4539 22.3152 12.6226 22.548 12.8404 22.8368C12.4625 22.8191 12.184 22.776 11.9902 22.4915C11.8685 22.3205 11.7226 22.1678 11.5571 22.038C11.4952 21.9889 11.4455 21.9265 11.4116 21.8555C11.3777 21.7845 11.3605 21.7068 11.3614 21.6282C11.3283 21.044 11.3001 20.4598 11.2492 19.8763C11.1982 19.2927 11.1314 18.7297 11.0805 18.1553C11.0296 17.5808 10.9921 17.0051 10.948 16.43C10.9412 16.34 10.9283 16.2476 11.0345 16.2008C11.1774 16.2215 11.1627 16.3334 11.17 16.4288C11.2081 16.9048 11.2393 17.3814 11.2817 17.8568C11.3855 19.015 11.4921 20.1729 11.6013 21.3304ZM9.94504 32.3499C9.67023 32.3165 9.46719 32.2819 9.28439 32.1068C9.54019 31.998 9.76163 32.0703 9.94504 32.3499ZM14.3291 30.6557C14.3905 30.6557 14.4518 30.646 14.5082 30.6502C14.596 30.6563 14.6831 30.6715 14.8015 30.6867C14.8192 30.8325 14.8262 30.9794 14.8223 31.1262C14.8152 31.1625 14.7994 31.1966 14.7762 31.2256C14.7531 31.2546 14.7232 31.2776 14.6892 31.2928C14.4782 31.3586 14.2501 31.3448 14.0488 31.2539C13.8709 31.1676 13.8378 31.0247 13.9586 30.866C14.0494 30.7463 14.1598 30.6484 14.3291 30.6557ZM14.1794 30.2441C14.1837 30.0156 14.3058 29.9019 14.5426 29.9055C14.7591 29.9092 14.8493 30.0034 14.8493 30.2223C14.8493 30.4125 14.7045 30.5335 14.488 30.5299C14.2862 30.5262 14.1764 30.4235 14.1794 30.2441ZM15.2762 31.5566C15.6155 31.525 15.951 31.4727 16.2908 31.4259C16.3785 31.4138 16.4687 31.3651 16.5436 31.5001C16.3215 31.7153 16.0136 31.7001 15.7461 31.7384C14.9303 31.8557 14.1193 31.8265 13.3059 31.5414C13.4004 31.3505 13.5035 31.4198 13.5967 31.4332C14.1512 31.5177 14.7076 31.6083 15.2762 31.5566ZM15.3554 30.5299C15.1339 30.5232 15.0137 30.4083 15.0186 30.2016C15.0235 29.987 15.118 29.8976 15.34 29.9055C15.5621 29.9134 15.6927 30.0441 15.6866 30.2648C15.6793 30.4308 15.548 30.5359 15.3523 30.5299H15.3554ZM15.8093 30.773C15.9203 30.852 16.0179 30.9718 15.9498 31.1007C15.9013 31.1913 15.7713 31.2393 15.6756 31.3037C15.6562 31.3117 15.6352 31.3155 15.6142 31.3147C15.0793 31.3961 14.9474 31.2472 15.0885 30.6587C15.2496 30.6518 15.411 30.6534 15.5719 30.6636C15.6581 30.6812 15.7386 30.7196 15.8062 30.7755L15.8093 30.773ZM14.7923 32.0211C15.3891 32.0721 15.9676 31.8995 16.5552 31.8387C16.7791 31.815 16.7785 31.8107 16.7797 32.0746C15.7369 32.308 14.2003 32.3177 13.0606 32.0715C13.1005 31.8132 13.1004 31.8138 13.3004 31.8387C13.7942 31.9043 14.2905 31.9803 14.7892 32.0235L14.7923 32.0211ZM14.0813 32.4782C14.8708 32.5135 15.6633 32.539 16.4503 32.4174C16.6957 32.3791 16.941 32.3366 17.1907 32.305C17.252 32.2971 17.3134 32.3232 17.4072 32.3402C17.36 32.401 17.3459 32.4508 17.3152 32.4618C16.9539 32.5736 16.6037 32.705 16.2111 32.6995C15.3523 32.6819 14.4862 32.6849 13.6237 32.6995C13.2188 32.7074 12.8692 32.5481 12.4876 32.4509C12.5226 32.2752 12.603 32.2952 12.6846 32.3056C13.1452 32.3694 13.6102 32.4594 14.0782 32.4806L14.0813 32.4782ZM19.2426 32.0326C19.2358 32.0326 19.234 32.0156 19.2187 31.9834C19.4027 31.801 19.6591 31.7402 19.9002 31.6612C19.9683 31.6387 20.0228 31.7378 19.9873 31.8059C19.9112 31.9499 19.3941 32.108 19.2395 32.0338L19.2426 32.0326ZM19.4732 32.6271C19.199 32.7354 18.931 32.8916 18.5801 32.7888C18.6157 32.7372 18.6267 32.7025 18.6476 32.6952C18.9461 32.5919 19.2456 32.4906 19.5462 32.3913C19.5585 32.3876 19.5793 32.4095 19.5984 32.4211C19.6266 32.536 19.5524 32.5974 19.4702 32.6296L19.4732 32.6271ZM18.831 31.5159C18.9346 31.3159 19.0917 31.3183 19.2604 31.3548C19.1561 31.5116 19.0365 31.6034 18.8279 31.5183L18.831 31.5159ZM18.8574 32.0594C18.8937 32.0709 18.9246 32.0951 18.9445 32.1274C18.9484 32.1456 18.9482 32.1644 18.944 32.1824C18.9398 32.2005 18.9315 32.2174 18.9199 32.232C18.7537 32.4253 18.0378 32.5749 17.7968 32.4691C17.7833 32.4636 17.7784 32.4369 17.7581 32.398C17.7869 32.3657 17.8029 32.3317 17.8262 32.325C18.1403 32.2356 18.455 32.1493 18.7696 32.0636C18.7971 32.0552 18.8265 32.0545 18.8543 32.0618L18.8574 32.0594ZM17.8238 32.9968C17.5784 33.0373 17.3312 33.0766 17.0821 33.1147C16.2234 33.2442 15.3609 33.1506 14.5009 33.1846C13.7897 33.2068 13.078 33.1661 12.3742 33.063C12.2452 33.0452 12.1174 33.02 11.9914 32.9876C11.9012 32.9645 11.819 32.9226 11.865 32.7603C12.5355 32.8253 13.2109 32.9171 13.8893 32.9493C14.5794 32.9828 15.2732 32.9828 15.9633 32.9493C16.6435 32.9165 17.3214 32.8247 18.0072 32.7578C18.0329 32.9414 17.9329 32.9803 17.8207 32.9992L17.8238 32.9968ZM17.5937 31.9457C17.4839 31.9627 17.36 32.0308 17.2698 31.8673C17.3091 31.835 17.3404 31.7901 17.3809 31.7797C17.7681 31.6837 18.1566 31.5917 18.5464 31.5037C18.5746 31.4976 18.6126 31.5305 18.6488 31.5463C18.5132 31.7499 18.2709 31.8399 17.5907 31.9481L17.5937 31.9457ZM12.5073 31.9627C12.4898 31.9726 12.4694 31.9761 12.4496 31.9724C12.0356 31.9116 11.6197 31.8551 11.2473 31.6466C11.2283 31.6363 11.2265 31.5961 11.1921 31.5013C11.2912 31.5044 11.3899 31.5137 11.4878 31.5293C11.7945 31.6016 12.1061 31.68 12.4147 31.7578C12.4543 31.7635 12.4919 31.7785 12.5245 31.8016C12.5493 31.8287 12.5631 31.864 12.5631 31.9007C12.56 31.9244 12.5275 31.9493 12.5042 31.9651L12.5073 31.9627ZM11.2976 32.1122C11.5197 32.173 11.7417 32.2277 11.9607 32.2946C12.0153 32.3116 12.0576 32.3682 12.1227 32.4162C12.0718 32.4563 12.0509 32.4873 12.0257 32.4904C11.6543 32.5372 11.2781 32.451 10.9651 32.2472C10.9479 32.2323 10.9348 32.2134 10.9268 32.1921C10.9189 32.1709 10.9165 32.148 10.9198 32.1256C10.9315 32.1058 10.948 32.0891 10.9678 32.077C10.9876 32.0649 11.0101 32.0578 11.0332 32.0563C11.1221 32.0669 11.2097 32.0864 11.2946 32.1147L11.2976 32.1122ZM11.2768 32.7202L11.2553 32.7943C10.9357 32.9001 10.6627 32.7335 10.3818 32.6247C10.3014 32.5931 10.3063 32.5809 10.2744 32.3815L11.2768 32.7202ZM10.5474 31.3524C10.8682 31.3104 10.9155 31.3329 10.9995 31.5347C10.8143 31.5858 10.6873 31.5159 10.5443 31.3542L10.5474 31.3524ZM10.6615 32.0338C10.5842 32.0612 10.5339 32.0995 10.4996 32.0879C10.3092 32.0275 10.1227 31.956 9.94075 31.8739C9.89965 31.8545 9.89168 31.7639 9.86837 31.7062C9.92058 31.6882 9.97566 31.6797 10.0309 31.6812C10.2686 31.742 10.4861 31.8636 10.6615 32.0338ZM21.2429 32.3262C21.2938 32.3694 21.3086 32.4898 21.2932 32.5694C21.2788 32.6431 21.2448 32.7117 21.1946 32.7681C21.1445 32.8244 21.08 32.8664 21.008 32.8898C19.9106 33.3086 18.7997 33.6691 17.6299 33.8509C16.7276 33.9907 15.8246 33.9171 14.9235 33.9962C14.1709 33.9682 13.4139 33.9779 12.6662 33.9044C11.4659 33.7784 10.2914 33.4756 9.18134 33.0059C9.05866 32.956 8.93597 32.9208 8.81329 32.874C8.64399 32.8089 8.57161 32.6685 8.54952 32.5031C8.52744 32.3378 8.62743 32.2545 8.7863 32.2861C8.82462 32.2969 8.86118 32.3131 8.89487 32.3341C9.57944 32.6989 10.3131 32.936 11.0492 33.1694C11.5694 33.3335 12.1141 33.3463 12.6484 33.4259C13.5777 33.5651 14.5101 33.5585 15.4443 33.5475C16.089 33.5408 16.7257 33.4624 17.3655 33.4071C18.2859 33.3279 19.1868 33.0989 20.032 32.7293C20.3529 32.5895 20.6712 32.4454 20.9963 32.3165C21.0693 32.2855 21.1932 32.2819 21.2429 32.3244V32.3262ZM20.5326 32.0411C20.4596 32.2502 20.2148 32.3505 19.8818 32.2885C20.1014 32.0946 20.2897 32.0235 20.5326 32.0393V32.0411ZM20.4712 27.6642C20.4818 27.6942 20.4854 27.7261 20.4818 27.7577C20.4781 27.7893 20.4674 27.8196 20.4504 27.8465C20.3717 27.9232 20.2804 27.9861 20.1805 28.0326C19.5125 28.3578 18.8383 28.6636 18.0949 28.7839C17.8121 28.8301 17.5361 28.9195 17.2361 28.9949C17.387 29.7286 17.6986 30.3931 17.7642 31.142C17.5759 31.142 17.5379 31.0381 17.5042 30.9055C17.3484 30.2976 17.1846 29.6897 17.0232 29.0861C17.0148 29.0647 17.0041 29.0444 16.9913 29.0253C16.8313 28.9449 16.6476 28.9234 16.473 28.9645C16.3988 28.9833 16.3141 28.9602 16.2344 28.9602L13.5924 28.9669H12.9017C12.8712 29.0204 12.8447 29.0761 12.8226 29.1335C12.6676 29.7207 12.5136 30.3084 12.3607 30.8964C12.3275 31.0241 12.2993 31.1511 12.0951 31.1359C12.1668 30.4028 12.4631 29.7335 12.6257 28.9943C12.3656 28.928 12.1159 28.8727 11.8687 28.8004C11.4068 28.6709 10.94 28.5517 10.4867 28.3949C10.1757 28.2867 9.88186 28.1274 9.58681 27.9791C9.41198 27.8909 9.40278 27.863 9.38192 27.6824C9.4629 27.7134 9.53589 27.7365 9.60459 27.7681C10.4634 28.1651 11.3602 28.4514 12.2674 28.7104C12.8195 28.8678 13.3857 28.8113 13.9464 28.8143C14.4886 28.8143 15.0303 28.7949 15.5725 28.79C16.0019 28.7858 16.4362 28.8149 16.8644 28.7845C17.2248 28.7608 17.5817 28.6997 17.9293 28.6022C18.6801 28.3852 19.4327 28.1621 20.0995 27.7341C20.1655 27.6884 20.2384 27.6533 20.3154 27.6301C20.3633 27.6198 20.4596 27.638 20.4682 27.6642H20.4712ZM21.4852 20.5231C21.4546 20.8635 21.3883 21.1796 21.1129 21.4349C20.9319 21.6015 20.8062 21.8258 20.6504 22.0216C20.5057 22.2128 20.31 22.3602 20.0854 22.4471C19.6278 22.624 19.1825 22.8313 18.7322 23.0252C18.6408 23.0647 18.5482 23.1012 18.4451 23.1432C18.3838 22.9656 18.4507 22.8781 18.6028 22.8112C19.0144 22.6289 19.415 22.421 19.8327 22.2556C20.2112 22.1061 20.5142 21.8848 20.7277 21.5425C20.7498 21.5094 20.7738 21.4776 20.7994 21.4471C21.1405 21.027 21.3656 20.562 21.3668 20.01C21.3714 19.9715 21.3806 19.9338 21.3944 19.8975H21.4631C21.4984 20.1042 21.5048 20.3147 21.4822 20.5231H21.4852ZM18.8543 20.1073C18.9237 20.0675 18.9988 20.0382 19.077 20.0203C19.5063 19.8823 19.9357 19.748 20.3651 19.6063C20.5737 19.537 20.7773 19.4525 20.9841 19.3772C21.1264 19.3249 21.1313 19.3267 21.3264 19.4203C21.2282 19.4872 21.1705 19.5474 21.1006 19.5711C20.3443 19.8221 19.5855 20.0671 18.8279 20.3139L18.7813 20.2629C18.8015 20.2094 18.8101 20.1364 18.8512 20.1073H18.8543ZM18.8052 19.7571C18.8353 19.5352 18.8598 19.3571 18.8843 19.1796L18.9457 19.1644L19.3137 19.6398L18.8052 19.7571ZM19.2346 20.644C19.1892 20.6605 19.1248 20.6787 19.0929 20.6592C19.061 20.6398 19.0463 20.5741 19.0389 20.5267C19.0389 20.5115 19.077 20.4805 19.1003 20.472C19.4867 20.3427 19.874 20.2153 20.2621 20.0896C20.2835 20.0829 20.3148 20.1054 20.3848 20.1285C20.3234 20.1893 20.2872 20.2446 20.2363 20.2647C19.9045 20.396 19.5701 20.5206 19.2328 20.644H19.2346ZM19.8321 20.844C19.648 20.948 19.456 21.0416 19.2095 21.0386C19.2095 20.9863 19.196 20.9267 19.2095 20.917C19.3434 20.8384 19.4818 20.7678 19.6241 20.7054C19.7382 20.658 19.8155 20.6988 19.8302 20.844H19.8321ZM21.1926 19.0349L19.7542 19.4896C19.6763 19.4112 19.5916 19.3304 19.5131 19.2465C19.4518 19.1796 19.407 19.1012 19.3456 19.0355C18.8156 18.4653 18.9647 18.5881 19.0389 17.8252C19.0494 17.7267 19.123 17.6264 19.188 17.5431C19.3591 17.3242 19.5499 17.1206 19.7186 16.9005C20.0584 16.4586 20.3878 16.0093 20.7252 15.5631C20.7613 15.5166 20.8088 15.48 20.8632 15.4567C21.1012 15.3577 21.3417 15.2665 21.63 15.1528C21.495 16.4762 21.3877 17.751 21.1908 19.0349H21.1926ZM19.0181 17.0185C19.0573 16.7753 19.0917 16.5364 19.1408 16.2969C19.1788 16.103 19.3082 15.9929 19.5008 15.9425C19.6726 15.8969 19.8394 15.833 20.0087 15.7771C20.0235 15.7923 20.0388 15.8075 20.0535 15.8233C19.7352 16.2343 19.4438 16.6665 19.0794 17.0391L19.0181 17.0185ZM21.9815 14.6355L19.0549 15.7467C18.7653 15.8587 18.4572 15.916 18.1464 15.9157C15.9246 15.9113 13.703 15.9113 11.4816 15.9157C11.1907 15.9161 10.9023 15.8631 10.6308 15.7595C9.64508 15.3874 8.66239 15.0075 7.67479 14.6403C7.48095 14.5686 7.48709 14.4421 7.50119 14.2519C7.65271 14.3084 7.78214 14.3534 7.9085 14.4063C8.29618 14.5668 8.68079 14.7358 9.07031 14.8926C9.58129 15.0975 10.1033 15.2786 10.6039 15.5005C10.8684 15.6142 11.1547 15.6698 11.443 15.6634C13.8157 15.658 16.1878 15.6634 18.5586 15.6598C18.7101 15.6598 18.8653 15.5887 19.0132 15.5303C19.4683 15.3479 19.9198 15.1564 20.3725 14.9686C20.7614 14.8075 21.1491 14.644 21.538 14.4859C21.73 14.4075 21.9263 14.3394 22.1269 14.2646C22.1624 14.5583 22.1588 14.5686 21.9815 14.6355Z" fill="url(#paint1_linear_930_43)"/>
<path d="M13.5705 17.8026C13.5533 17.9685 13.522 18.1351 13.5214 18.3017C13.5208 18.4682 13.5502 18.6506 13.568 18.8403C13.3306 18.6762 13.3098 18.1534 13.5067 17.7965L13.5705 17.8026Z" fill="url(#paint2_linear_930_43)"/>
<path d="M16.1807 18.2422C16.3947 18.4148 16.4125 18.5613 16.2622 18.8501C16.2304 18.6118 16.2052 18.427 16.1807 18.2422Z" fill="url(#paint3_linear_930_43)"/>
<path d="M20.896 16.2361C21.153 16.2969 21.2745 16.4446 21.334 16.7279C21.4094 17.0859 21.3199 17.4744 21.1248 17.6227C20.9941 17.5571 21.0359 17.4403 21.0481 17.3388C21.0604 17.2373 21.0941 17.1261 21.1058 17.0185C21.1303 16.7972 21.1211 16.5832 20.9567 16.4045C20.9285 16.3729 20.9248 16.3188 20.896 16.2361Z" fill="url(#paint4_linear_930_43)"/>
<path d="M20.0038 18.9273C19.8143 19.0416 19.7327 18.8938 19.6548 18.8014C19.4094 18.5139 19.3082 18.1935 19.4248 17.8245C19.5793 17.8106 19.6008 17.903 19.591 17.9759C19.5425 18.3406 19.7198 18.6045 19.9646 18.8422C19.9781 18.8549 19.9811 18.8774 20.0038 18.9273Z" fill="url(#paint5_linear_930_43)"/>
<path d="M20.0038 18.9272C19.8143 19.0414 19.7327 18.8937 19.6548 18.8013C19.4094 18.5138 19.3082 18.1934 19.4248 17.8244C19.5793 17.8104 19.6008 17.9028 19.591 17.9758C19.5425 18.3405 19.7198 18.6044 19.9646 18.8421C19.9781 18.8548 19.9811 18.8773 20.0038 18.9272Z" fill="url(#paint6_linear_930_43)"/>
<path d="M8.93888 17.6154C8.77571 17.6829 8.71928 17.6245 8.67388 17.5346C8.50029 17.1923 8.60518 16.4774 8.87386 16.2124C8.89839 16.188 8.94379 16.1844 8.97752 16.1716C9.07874 16.2537 9.05972 16.3358 8.99777 16.4105C8.80454 16.6434 8.82969 16.9084 8.87509 17.1777C8.89533 17.3218 8.91618 17.4659 8.93888 17.6154Z" fill="url(#paint7_linear_930_43)"/>
<path d="M10.0171 18.9814C9.93307 18.892 9.90669 18.7948 10.0048 18.6993C10.2625 18.4489 10.368 18.1376 10.3729 17.7267C10.4594 17.796 10.5275 17.8233 10.5477 17.8708C10.7011 18.2404 10.4226 18.8246 10.0171 18.9814Z" fill="url(#paint8_linear_930_43)"/>
</g>
<defs>
<linearGradient id="paint0_linear_930_43" x1="14.5002" y1="-27.2333" x2="15.3023" y2="36.0962" gradientUnits="userSpaceOnUse">
<stop offset="0.078125" stop-color="#AA771C" stop-opacity="0"/>
<stop offset="0.307292" stop-color="#FBF5B7" stop-opacity="0.286458"/>
<stop offset="0.53125" stop-color="#B38728" stop-opacity="0.46875"/>
<stop offset="0.713542" stop-color="#FCF6BA" stop-opacity="0.713542"/>
<stop offset="1" stop-color="#AA771C"/>
</linearGradient>
<linearGradient id="paint1_linear_930_43" x1="15" y1="36.3779" x2="15" y2="-26.5243" gradientUnits="userSpaceOnUse">
<stop stop-color="#AA771C"/>
<stop offset="0.25" stop-color="#FBF5B7"/>
<stop offset="0.39" stop-color="#B38728"/>
<stop offset="0.57" stop-color="#FCF6BA"/>
</linearGradient>
<linearGradient id="paint2_linear_930_43" x1="13.4718" y1="18.8809" x2="13.4718" y2="16.8968" gradientUnits="userSpaceOnUse">
<stop stop-color="#AA771C"/>
<stop offset="0.25" stop-color="#FBF5B7"/>
<stop offset="0.39" stop-color="#B38728"/>
<stop offset="0.57" stop-color="#FCF6BA"/>
</linearGradient>
<linearGradient id="paint3_linear_930_43" x1="16.2706" y1="18.8737" x2="16.2706" y2="17.7182" gradientUnits="userSpaceOnUse">
<stop stop-color="#AA771C"/>
<stop offset="0.25" stop-color="#FBF5B7"/>
<stop offset="0.39" stop-color="#B38728"/>
<stop offset="0.57" stop-color="#FCF6BA"/>
</linearGradient>
<linearGradient id="paint4_linear_930_43" x1="21.1283" y1="17.6766" x2="21.1283" y2="15.0409" gradientUnits="userSpaceOnUse">
<stop stop-color="#AA771C"/>
<stop offset="0.25" stop-color="#FBF5B7"/>
<stop offset="0.39" stop-color="#B38728"/>
<stop offset="0.57" stop-color="#FCF6BA"/>
</linearGradient>
<linearGradient id="paint5_linear_930_43" x1="666.409" y1="618.138" x2="672.821" y2="618.138" gradientUnits="userSpaceOnUse">
<stop stop-color="#8B5624"/>
<stop offset="0.2" stop-color="#F9E381"/>
<stop offset="0.52" stop-color="#D99E4F"/>
<stop offset="0.81" stop-color="#F9E381"/>
<stop offset="1" stop-color="#8B5624"/>
</linearGradient>
<linearGradient id="paint6_linear_930_43" x1="19.6901" y1="19.0133" x2="19.6901" y2="16.8354" gradientUnits="userSpaceOnUse">
<stop stop-color="#AA771C"/>
<stop offset="0.25" stop-color="#FBF5B7"/>
<stop offset="0.39" stop-color="#B38728"/>
<stop offset="0.57" stop-color="#FCF6BA"/>
</linearGradient>
<linearGradient id="paint7_linear_930_43" x1="8.81882" y1="17.702" x2="8.81882" y2="14.9019" gradientUnits="userSpaceOnUse">
<stop stop-color="#AA771C"/>
<stop offset="0.25" stop-color="#FBF5B7"/>
<stop offset="0.39" stop-color="#B38728"/>
<stop offset="0.57" stop-color="#FCF6BA"/>
</linearGradient>
<linearGradient id="paint8_linear_930_43" x1="10.2661" y1="19.0302" x2="10.2661" y2="16.6452" gradientUnits="userSpaceOnUse">
<stop stop-color="#AA771C"/>
<stop offset="0.25" stop-color="#FBF5B7"/>
<stop offset="0.39" stop-color="#B38728"/>
<stop offset="0.57" stop-color="#FCF6BA"/>
</linearGradient>
<clipPath id="clip0_930_43">
<rect width="15.8261" height="33.091" fill="white" transform="translate(7.08691 2)"/>
</clipPath>
</defs>
</svg>
