<svg xmlns="http://www.w3.org/2000/svg" xmlns:xlink="http://www.w3.org/1999/xlink" viewBox="0 0 646 646"><defs><style>.cls-1{fill:url(#linear-gradient);}.cls-2{fill:url(#linear-gradient-2);}.cls-3{fill:url(#linear-gradient-3);}.cls-4{fill:url(#linear-gradient-4);}.cls-5{fill:url(#linear-gradient-5);}.cls-6{fill:url(#linear-gradient-6);}.cls-7{fill:url(#linear-gradient-7);}.cls-8{fill:url(#linear-gradient-8);}.cls-9{fill:url(#linear-gradient-9);}.cls-10{fill:url(#linear-gradient-10);}.cls-11{fill:url(#linear-gradient-11);}.cls-12{fill:url(#linear-gradient-12);}.cls-13{fill:url(#linear-gradient-13);}.cls-14{fill:url(#linear-gradient-14);}.cls-15{fill:url(#linear-gradient-15);}.cls-16{fill:url(#linear-gradient-16);}.cls-17{fill:url(#linear-gradient-17);}.cls-18{fill:url(#linear-gradient-18);}.cls-19{fill:url(#linear-gradient-19);}.cls-20{fill:url(#linear-gradient-20);}.cls-21{fill:url(#linear-gradient-21);}.cls-22{fill:url(#linear-gradient-22);}.cls-23{fill:url(#linear-gradient-23);}.cls-24{fill:url(#linear-gradient-24);}.cls-25{fill:url(#linear-gradient-25);}.cls-26{fill:url(#linear-gradient-26);}.cls-27{fill:url(#linear-gradient-27);}.cls-28{fill:url(#linear-gradient-28);}.cls-29{fill:url(#linear-gradient-29);}.cls-30{fill:url(#linear-gradient-30);}.cls-31{fill:url(#linear-gradient-31);}.cls-32{fill:url(#linear-gradient-32);}.cls-33{fill:url(#linear-gradient-33);}.cls-34{fill:url(#linear-gradient-34);}.cls-35{fill:url(#linear-gradient-35);}.cls-36{fill:url(#linear-gradient-36);}.cls-37{fill:url(#linear-gradient-37);}.cls-38{fill:url(#linear-gradient-38);}.cls-39{fill:url(#linear-gradient-39);}.cls-40{fill:url(#linear-gradient-40);}.cls-41{fill:url(#linear-gradient-41);}.cls-42{fill:url(#linear-gradient-42);}.cls-43{fill:url(#linear-gradient-43);}.cls-44{fill:url(#linear-gradient-44);}.cls-45{fill:url(#linear-gradient-45);}.cls-46{fill:url(#linear-gradient-46);}.cls-47{fill:url(#linear-gradient-47);}.cls-48{fill:url(#linear-gradient-48);}.cls-49{fill:url(#linear-gradient-49);}.cls-50{fill:url(#linear-gradient-50);}.cls-51{fill:url(#linear-gradient-51);}.cls-52{fill:url(#linear-gradient-52);}.cls-53{fill:url(#linear-gradient-53);}.cls-54{fill:url(#linear-gradient-54);}.cls-55{fill:url(#linear-gradient-55);}.cls-56{fill:url(#linear-gradient-56);}.cls-57{fill:url(#linear-gradient-57);}.cls-58{fill:url(#linear-gradient-58);}.cls-59{fill:url(#linear-gradient-59);}.cls-60{fill:url(#linear-gradient-60);}.cls-61{fill:url(#linear-gradient-61);}.cls-62{fill:url(#linear-gradient-62);}.cls-63{fill:url(#linear-gradient-63);}.cls-64{fill:url(#linear-gradient-64);}.cls-65{fill:url(#linear-gradient-65);}.cls-66{fill:url(#linear-gradient-66);}.cls-67{fill:url(#linear-gradient-67);}.cls-68{fill:url(#linear-gradient-68);}.cls-69{fill:url(#linear-gradient-69);}.cls-70{fill:url(#linear-gradient-70);}.cls-71{fill:url(#linear-gradient-71);}.cls-72{fill:url(#linear-gradient-72);}.cls-73{fill:url(#linear-gradient-73);}.cls-74{fill:url(#linear-gradient-74);}.cls-75{fill:url(#linear-gradient-75);}.cls-76{fill:url(#linear-gradient-76);}.cls-77{fill:url(#linear-gradient-77);}.cls-78{fill:url(#linear-gradient-78);}.cls-79{fill:url(#linear-gradient-79);}.cls-80{fill:url(#linear-gradient-80);}.cls-81{fill:url(#linear-gradient-81);}.cls-82{fill:url(#linear-gradient-82);}.cls-83{fill:url(#linear-gradient-83);}.cls-84{fill:url(#linear-gradient-84);}.cls-85{fill:url(#linear-gradient-85);}.cls-86{fill:url(#linear-gradient-86);}.cls-87{fill:url(#linear-gradient-87);}.cls-88{fill:url(#linear-gradient-88);}.cls-89{fill:url(#linear-gradient-89);}.cls-90{fill:url(#linear-gradient-90);}.cls-91{fill:url(#linear-gradient-91);}.cls-92{fill:url(#linear-gradient-92);}.cls-93{fill:url(#linear-gradient-93);}.cls-94{fill:url(#linear-gradient-94);}.cls-95{fill:url(#linear-gradient-95);}.cls-96{fill:url(#linear-gradient-96);}.cls-97{fill:url(#linear-gradient-97);}.cls-98{fill:url(#linear-gradient-98);}.cls-99{fill:url(#linear-gradient-99);}.cls-100{fill:url(#linear-gradient-100);}.cls-101{fill:url(#linear-gradient-101);}.cls-102{fill:url(#linear-gradient-102);}.cls-103{fill:url(#linear-gradient-103);}.cls-104{fill:url(#linear-gradient-104);}.cls-105{fill:url(#linear-gradient-105);}.cls-106{fill:url(#Gold_frame);}</style><linearGradient id="linear-gradient" x1="960.27" y1="495.42" x2="960.27" y2="556.73" gradientUnits="userSpaceOnUse"><stop offset="0" stop-color="#8b5624"/><stop offset="0.2" stop-color="#f9e381"/><stop offset="0.81" stop-color="#f9e381"/><stop offset="1" stop-color="#8b5624"/></linearGradient><linearGradient id="linear-gradient-2" x1="960.18" y1="561.42" x2="960.18" y2="596.08" xlink:href="#linear-gradient"/><linearGradient id="linear-gradient-3" x1="1051.54" y1="476.12" x2="1051.54" y2="549.29" xlink:href="#linear-gradient"/><linearGradient id="linear-gradient-4" x1="868.69" y1="477.83" x2="868.69" y2="549.26" xlink:href="#linear-gradient"/><linearGradient id="linear-gradient-5" x1="961.7" y1="765.04" x2="961.7" y2="794" xlink:href="#linear-gradient"/><linearGradient id="linear-gradient-6" x1="959.4" y1="619.36" x2="959.4" y2="669.74" xlink:href="#linear-gradient"/><linearGradient id="linear-gradient-7" x1="960.03" y1="297.3" x2="960.03" y2="333.94" xlink:href="#linear-gradient"/><linearGradient id="linear-gradient-8" x1="960" y1="460.92" x2="960" y2="489" xlink:href="#linear-gradient"/><linearGradient id="linear-gradient-9" x1="961.83" y1="686.61" x2="961.83" y2="745.89" xlink:href="#linear-gradient"/><linearGradient id="linear-gradient-10" x1="959.61" y1="603.25" x2="959.61" y2="615.66" xlink:href="#linear-gradient"/><linearGradient id="linear-gradient-11" x1="1009.47" y1="493.7" x2="1009.47" y2="605.85" xlink:href="#linear-gradient"/><linearGradient id="linear-gradient-12" x1="911.02" y1="493.8" x2="911.02" y2="605.77" xlink:href="#linear-gradient"/><linearGradient id="linear-gradient-13" x1="960.46" y1="462.92" x2="960.46" y2="477.3" xlink:href="#linear-gradient"/><linearGradient id="linear-gradient-14" x1="961.8" y1="773.19" x2="961.8" y2="780.53" xlink:href="#linear-gradient"/><linearGradient id="linear-gradient-15" x1="919.93" y1="345.39" x2="919.93" y2="472.94" xlink:href="#linear-gradient"/><linearGradient id="linear-gradient-16" x1="876.2" y1="554.44" x2="876.2" y2="610.69" xlink:href="#linear-gradient"/><linearGradient id="linear-gradient-17" x1="999.46" y1="345.61" x2="999.46" y2="473.15" xlink:href="#linear-gradient"/><linearGradient id="linear-gradient-18" x1="1045.88" y1="556.07" x2="1045.88" y2="610.87" xlink:href="#linear-gradient"/><linearGradient id="linear-gradient-19" x1="962.04" y1="765.48" x2="962.04" y2="772.24" xlink:href="#linear-gradient"/><linearGradient id="linear-gradient-20" x1="961.61" y1="757.54" x2="961.61" y2="764.72" xlink:href="#linear-gradient"/><linearGradient id="linear-gradient-21" x1="1026.03" y1="622.13" x2="1026.03" y2="643.48" xlink:href="#linear-gradient"/><linearGradient id="linear-gradient-22" x1="897.45" y1="622.38" x2="897.45" y2="643.41" xlink:href="#linear-gradient"/><linearGradient id="linear-gradient-23" x1="944.29" y1="443.27" x2="944.29" y2="453.24" xlink:href="#linear-gradient"/><linearGradient id="linear-gradient-24" x1="907.11" y1="658.23" x2="907.11" y2="676.75" xlink:href="#linear-gradient"/><linearGradient id="linear-gradient-25" x1="1012.98" y1="658.94" x2="1012.98" y2="677.19" xlink:href="#linear-gradient"/><linearGradient id="linear-gradient-26" x1="961.69" y1="750.39" x2="961.69" y2="757.06" xlink:href="#linear-gradient"/><linearGradient id="linear-gradient-27" x1="975.53" y1="443.39" x2="975.53" y2="452.78" xlink:href="#linear-gradient"/><linearGradient id="linear-gradient-28" x1="1024.56" y1="642.11" x2="1024.56" y2="661.44" xlink:href="#linear-gradient"/><linearGradient id="linear-gradient-29" x1="933.09" y1="680.93" x2="933.09" y2="701.19" xlink:href="#linear-gradient"/><linearGradient id="linear-gradient-30" x1="898.98" y1="642.24" x2="898.98" y2="660.31" xlink:href="#linear-gradient"/><linearGradient id="linear-gradient-31" x1="1044.2" y1="615.33" x2="1044.2" y2="635.51" xlink:href="#linear-gradient"/><linearGradient id="linear-gradient-32" x1="879.47" y1="615.26" x2="879.47" y2="635.57" xlink:href="#linear-gradient"/><linearGradient id="linear-gradient-33" x1="958.75" y1="534.08" x2="958.75" y2="550.69" xlink:href="#linear-gradient"/><linearGradient id="linear-gradient-34" x1="986.45" y1="680.77" x2="986.45" y2="700.63" xlink:href="#linear-gradient"/><linearGradient id="linear-gradient-35" x1="1047.45" y1="546.81" x2="1047.45" y2="563.2" xlink:href="#linear-gradient"/><linearGradient id="linear-gradient-36" x1="952.22" y1="737.59" x2="952.22" y2="749.12" xlink:href="#linear-gradient"/><linearGradient id="linear-gradient-37" x1="971.4" y1="737.72" x2="971.4" y2="749.2" xlink:href="#linear-gradient"/><linearGradient id="linear-gradient-38" x1="1034.98" y1="667.42" x2="1034.98" y2="682.13" xlink:href="#linear-gradient"/><linearGradient id="linear-gradient-39" x1="888.36" y1="667.66" x2="888.36" y2="682.2" xlink:href="#linear-gradient"/><linearGradient id="linear-gradient-40" x1="1038.82" y1="486.66" x2="1038.82" y2="507.99" xlink:href="#linear-gradient"/><linearGradient id="linear-gradient-41" x1="1041.4" y1="635.54" x2="1041.4" y2="653.42" xlink:href="#linear-gradient"/><linearGradient id="linear-gradient-42" x1="881.94" y1="635.97" x2="881.94" y2="653.36" xlink:href="#linear-gradient"/><linearGradient id="linear-gradient-43" x1="874.78" y1="546.78" x2="874.78" y2="562.89" xlink:href="#linear-gradient"/><linearGradient id="linear-gradient-44" x1="1043.82" y1="435.7" x2="1043.82" y2="449.16" xlink:href="#linear-gradient"/><linearGradient id="linear-gradient-45" x1="950.93" y1="419.92" x2="950.93" y2="438" xlink:href="#linear-gradient"/><linearGradient id="linear-gradient-46" x1="876.31" y1="436.19" x2="876.31" y2="448.43" xlink:href="#linear-gradient"/><linearGradient id="linear-gradient-47" x1="960.65" y1="269.24" x2="960.65" y2="284.86" xlink:href="#linear-gradient"/><linearGradient id="linear-gradient-48" x1="968.96" y1="420.72" x2="968.96" y2="438.01" xlink:href="#linear-gradient"/><linearGradient id="linear-gradient-49" x1="881.6" y1="488.84" x2="881.6" y2="508.34" xlink:href="#linear-gradient"/><linearGradient id="linear-gradient-50" x1="951.87" y1="647.22" x2="951.87" y2="657.96" xlink:href="#linear-gradient"/><linearGradient id="linear-gradient-51" x1="1060.62" y1="446.74" x2="1060.62" y2="459.72" xlink:href="#linear-gradient"/><linearGradient id="linear-gradient-52" x1="916.68" y1="542.15" x2="916.68" y2="556.18" xlink:href="#linear-gradient"/><linearGradient id="linear-gradient-53" x1="862.93" y1="447" x2="862.93" y2="459.59" xlink:href="#linear-gradient"/><linearGradient id="linear-gradient-54" x1="968.17" y1="647.81" x2="968.17" y2="658.01" xlink:href="#linear-gradient"/><linearGradient id="linear-gradient-55" x1="1003.55" y1="542.09" x2="1003.55" y2="556.04" xlink:href="#linear-gradient"/><linearGradient id="linear-gradient-56" x1="1060.57" y1="431.3" x2="1060.57" y2="442.49" xlink:href="#linear-gradient"/><linearGradient id="linear-gradient-57" x1="859.51" y1="431.24" x2="859.51" y2="442.59" xlink:href="#linear-gradient"/><linearGradient id="linear-gradient-58" x1="967.84" y1="633.94" x2="967.84" y2="643.28" xlink:href="#linear-gradient"/><linearGradient id="linear-gradient-59" x1="952.22" y1="633.93" x2="952.22" y2="643.22" xlink:href="#linear-gradient"/><linearGradient id="linear-gradient-60" x1="911.86" y1="496.07" x2="911.86" y2="508.62" xlink:href="#linear-gradient"/><linearGradient id="linear-gradient-61" x1="1007.95" y1="495.58" x2="1007.95" y2="508.82" xlink:href="#linear-gradient"/><linearGradient id="linear-gradient-62" x1="954.85" y1="725.04" x2="954.85" y2="735.57" xlink:href="#linear-gradient"/><linearGradient id="linear-gradient-63" x1="877.27" y1="418.65" x2="877.27" y2="434.13" xlink:href="#linear-gradient"/><linearGradient id="linear-gradient-64" x1="968.84" y1="725.04" x2="968.84" y2="735.58" xlink:href="#linear-gradient"/><linearGradient id="linear-gradient-65" x1="960.07" y1="392.81" x2="960.07" y2="413.94" xlink:href="#linear-gradient"/><linearGradient id="linear-gradient-66" x1="1042.96" y1="418.41" x2="1042.96" y2="434.16" xlink:href="#linear-gradient"/><linearGradient id="linear-gradient-67" x1="886.21" y1="403.07" x2="886.21" y2="414.74" xlink:href="#linear-gradient"/><linearGradient id="linear-gradient-68" x1="1033.76" y1="403.33" x2="1033.76" y2="414.4" xlink:href="#linear-gradient"/><linearGradient id="linear-gradient-69" x1="947.56" y1="288.03" x2="947.56" y2="308.27" xlink:href="#linear-gradient"/><linearGradient id="linear-gradient-70" x1="904.74" y1="761.42" x2="904.74" y2="769.01" xlink:href="#linear-gradient"/><linearGradient id="linear-gradient-71" x1="1019.01" y1="761.34" x2="1019.01" y2="768.93" xlink:href="#linear-gradient"/><linearGradient id="linear-gradient-72" x1="910.73" y1="752" x2="910.73" y2="759.98" xlink:href="#linear-gradient"/><linearGradient id="linear-gradient-73" x1="1012.42" y1="752.04" x2="1012.42" y2="759.99" xlink:href="#linear-gradient"/><linearGradient id="linear-gradient-74" x1="1052.62" y1="416.03" x2="1052.62" y2="429.7" xlink:href="#linear-gradient"/><linearGradient id="linear-gradient-75" x1="867.62" y1="415.87" x2="867.62" y2="429.7" xlink:href="#linear-gradient"/><linearGradient id="linear-gradient-76" x1="880.29" y1="559.47" x2="880.29" y2="569.08" xlink:href="#linear-gradient"/><linearGradient id="linear-gradient-77" x1="1041.77" y1="559.4" x2="1041.77" y2="569.17" xlink:href="#linear-gradient"/><linearGradient id="linear-gradient-78" x1="1039.54" y1="675.95" x2="1039.54" y2="685.34" xlink:href="#linear-gradient"/><linearGradient id="linear-gradient-79" x1="892.3" y1="766.85" x2="892.3" y2="774.38" xlink:href="#linear-gradient"/><linearGradient id="linear-gradient-80" x1="883.96" y1="675.78" x2="883.96" y2="685.02" xlink:href="#linear-gradient"/><linearGradient id="linear-gradient-81" x1="1031.38" y1="767.05" x2="1031.38" y2="774.3" xlink:href="#linear-gradient"/><linearGradient id="linear-gradient-82" x1="954.3" y1="256.68" x2="954.3" y2="280.73" xlink:href="#linear-gradient"/><linearGradient id="linear-gradient-83" x1="980.37" y1="291.32" x2="980.37" y2="308.27" xlink:href="#linear-gradient"/><linearGradient id="linear-gradient-84" x1="972.4" y1="663.54" x2="972.4" y2="675.65" xlink:href="#linear-gradient"/><linearGradient id="linear-gradient-85" x1="883.82" y1="754.93" x2="883.82" y2="761.87" xlink:href="#linear-gradient"/><linearGradient id="linear-gradient-86" x1="1040" y1="754.65" x2="1040" y2="761.28" xlink:href="#linear-gradient"/><linearGradient id="linear-gradient-87" x1="889.48" y1="544" x2="889.48" y2="553.54" xlink:href="#linear-gradient"/><linearGradient id="linear-gradient-88" x1="1030.86" y1="543.8" x2="1030.86" y2="553.8" xlink:href="#linear-gradient"/><linearGradient id="linear-gradient-89" x1="971.37" y1="254.16" x2="971.37" y2="263.21" xlink:href="#linear-gradient"/><linearGradient id="linear-gradient-90" x1="959.7" y1="341.63" x2="959.7" y2="344.39" xlink:href="#linear-gradient"/><linearGradient id="linear-gradient-91" x1="1038.51" y1="569.5" x2="1038.51" y2="575.43" xlink:href="#linear-gradient"/><linearGradient id="linear-gradient-92" x1="882.56" y1="569.56" x2="882.56" y2="576.27" xlink:href="#linear-gradient"/><linearGradient id="linear-gradient-93" x1="872.93" y1="761.38" x2="872.93" y2="766.29" xlink:href="#linear-gradient"/><linearGradient id="linear-gradient-94" x1="1050.06" y1="761.01" x2="1050.06" y2="765.53" xlink:href="#linear-gradient"/><linearGradient id="linear-gradient-95" x1="860.76" y1="456.67" x2="860.76" y2="461.34" xlink:href="#linear-gradient"/><linearGradient id="linear-gradient-96" x1="1063.84" y1="456.54" x2="1063.84" y2="460.99" xlink:href="#linear-gradient"/><linearGradient id="linear-gradient-97" x1="1043.62" y1="682.67" x2="1043.62" y2="687.12" xlink:href="#linear-gradient"/><linearGradient id="linear-gradient-98" x1="892.27" y1="749.19" x2="892.27" y2="752.85" xlink:href="#linear-gradient"/><linearGradient id="linear-gradient-99" x1="1030.58" y1="749.21" x2="1030.58" y2="752.8" xlink:href="#linear-gradient"/><linearGradient id="linear-gradient-100" x1="880.47" y1="681.74" x2="880.47" y2="687.09" xlink:href="#linear-gradient"/><linearGradient id="linear-gradient-101" x1="967.54" y1="286.09" x2="967.54" y2="297.17" xlink:href="#linear-gradient"/><linearGradient id="linear-gradient-102" x1="985.43" y1="312.47" x2="985.43" y2="319.75" xlink:href="#linear-gradient"/><linearGradient id="linear-gradient-103" x1="933.92" y1="313.27" x2="933.92" y2="320.07" xlink:href="#linear-gradient"/><linearGradient id="linear-gradient-104" x1="980.36" y1="325.05" x2="980.36" y2="331.98" xlink:href="#linear-gradient"/><linearGradient id="linear-gradient-105" x1="939.1" y1="326.15" x2="939.1" y2="331.3" xlink:href="#linear-gradient"/><linearGradient id="Gold_frame" x1="963.51" y1="216.65" x2="956.5" y2="862.61" gradientUnits="userSpaceOnUse"><stop offset="0" stop-color="#8b5624"/><stop offset="0.2" stop-color="#f9e381"/><stop offset="0.52" stop-color="#d99e4f"/><stop offset="0.81" stop-color="#f9e381"/><stop offset="1" stop-color="#8b5624"/></linearGradient></defs><g id="Layer_1" data-name="Layer 1"><path class="cls-1" d="M962.6,496.12c-.57,2.05-1.11,4-1.76,6.37,4.28-.76,3.2-4.75,5.48-6.84H982c1,0,2.09.39,3,.13,5-1.39,8,1.45,11,4.87a151,151,0,0,0,12.44,12.48,14.4,14.4,0,0,1,5.26,11.39c0,2.35,0,4.71-.21,7a3.94,3.94,0,0,1-1.32,2.49c-4.11,3.17-8.32,6.21-12.5,9.28-5.54,4.08-11,8.2-16.65,12.17a7.23,7.23,0,0,1-3.68,1.12c-3.34.15-6.69,0-10.25,0,2-4.36,4.09-8.13,5.46-12.14a21.22,21.22,0,0,0,.57-13.3,48.08,48.08,0,0,1-1.87,5.61,2.35,2.35,0,0,1-2,1c-.6-.11-1.53-1.15-1.46-1.67.76-5.26-1.6-9.88-2.88-14.7-1.1-4.15.88-7.54,2.43-11.05.58-1.32,1.43-2.52,2.61-4.55-6.21,1.3-9.18,5.52-12,9.36s-4.71,8.24-7.14,12.67c-2.83-.88-2.39-3.45-2.26-5.64a70.26,70.26,0,0,1,1.09-7c-10.54,5.78-10.45,25.51.12,40.92l-5.44.47c-4.4.37-8.28,0-12-3.29-6.2-5.37-13-10-19.62-14.91-2.29-1.7-4.72-3.21-7.73-5.24,0-3.93-.22-8.43.12-12.88a8.6,8.6,0,0,1,2.47-4.7c6-6.34,12.16-12.55,18.34-18.71a4.75,4.75,0,0,1,3-1.29c10-.08,20.09,0,30.14,0A6.76,6.76,0,0,1,962.6,496.12Zm-26.06,25-1.08-.09c-3.29,6-2.94,14.83,1,17.61-.3-3.21-.78-6.15-.78-9.1A82.73,82.73,0,0,1,936.54,521.12Zm43.64,7.42c.41,3.12.83,6.24,1.37,10.25C984.05,533.93,983.75,531.46,980.18,528.54Z" transform="translate(-637 -217)"/><path class="cls-2" d="M1006.24,561.84c-1,4.91-1.32,5.12-5.24,5.75a130.4,130.4,0,0,1-26.1,1.74c-1.86-.08-3.85-.23-4.24,2.82a16.3,16.3,0,0,0,3.09.71c6.21.21,12.42.33,18.63.46a42.51,42.51,0,0,1,4.52,0c1.25.16,3.31.49,3.48,1.14a4.84,4.84,0,0,1-.92,4,108.58,108.58,0,0,1-10.65,9.93c-5.72,4.52-12.79,6-19.74,7-17.69,2.54-32.8-2.59-44.6-16.38a8.91,8.91,0,0,1-1.17-1.64c-1.34-2.45-.66-3.89,2.15-4.06,3.51-.2,7,0,10.56-.13,4.48-.12,9-.32,13.44-.48.16-2.84-1.09-3.42-3-3.47-5.69-.17-11.39-.27-17.07-.68a117.64,117.64,0,0,1-12-1.62c-2.37-.42-4.14-1.6-2.8-5.14,3.92-.15,8.06-.41,12.2-.42q33-.06,66,0C997.13,561.47,1001.44,561.69,1006.24,561.84Z" transform="translate(-637 -217)"/><path class="cls-3" d="M1073.87,476.12c-2.27,22.33-4.06,43.83-7.35,65.5l-24.07,7.67c-1.3-1.32-2.72-2.68-4-4.14-1-1.13-1.78-2.46-2.8-3.57-8.87-9.62-6.37-7.54-5.08-20.41.17-1.66,1.4-3.36,2.49-4.76,2.87-3.69,6-7.13,8.88-10.85,5.68-7.45,11.19-15,16.83-22.52a5.83,5.83,0,0,1,2.31-1.8C1065,479.58,1069.05,478,1073.87,476.12ZM1059,494.69c.48,1.39.54,2.31,1,2.84,2.74,3,2.9,6.63,2.49,10.36-.21,1.82-.75,3.59-1,5.41s-.9,3.68,1.28,4.79c3.27-2.5,4.76-9.06,3.5-15.1C1065.36,498.21,1063.33,495.68,1059,494.69Zm-14.93,45.42a6.36,6.36,0,0,0-.65-1.45c-4.1-4-7.06-8.45-6.25-14.62.17-1.23-.2-2.78-2.78-2.55-1.94,6.19-.24,11.64,3.84,16.49C1039.57,539.54,1040.93,542,1044.1,540.11Z" transform="translate(-637 -217)"/><path class="cls-4" d="M878.14,549.26c-7.65-2.46-14.62-4.83-21.69-6.91-2.74-.8-3.66-2.39-3.91-5-.83-8.85-1.81-17.68-2.73-26.52q-1.54-14.76-3.06-29.51c-.1-1,0-2,0-3.46,7,2.35,13.49,4.07,18.08,10.33,7,9.59,14.71,18.71,22.19,28,4.18,5.15,3.35,11.31,3.66,17.23a3.84,3.84,0,0,1-1.1,2.21C885.85,540.08,882.08,544.55,878.14,549.26ZM859.08,518c-.38-2.51-.72-5-1.11-7.38-.72-4.55-1.14-9,2.09-12.94,1-1.27,1.36-2.65-.33-4-.57.22-1.33.28-1.74.69-4.49,4.48-6.25,16.53-3.35,22.31C855.41,518.11,856.35,519.1,859.08,518Zm18,23.06c6.79-2.65,11.44-12.51,8.85-18.71-.33-.8-1.47-1.26-2.92-2.44-.06,6.91-1.82,12.16-6.14,16.39C875.26,537.86,875.71,539.5,877.11,541Z" transform="translate(-637 -217)"/><path class="cls-5" d="M961.71,794c-12.59-.47-25.24-.3-37.74-1.55a202.76,202.76,0,0,1-58.28-15.16c-2-.84-4.12-1.44-6.16-2.22-2.83-1.1-4-3.47-4.41-6.26s1.31-4.19,4-3.66a7.1,7.1,0,0,1,1.81.8c11.45,6.15,23.72,10.17,36,14.1,8.7,2.77,17.81,3,26.74,4.33,15.54,2.34,31.13,2.24,46.76,2.08,10.78-.11,21.42-1.43,32.12-2.37a140.35,140.35,0,0,0,44.59-11.44c5.36-2.35,10.69-4.79,16.13-7,1.22-.49,3.29-.55,4.13.17s1.09,2.76.83,4.07a7.11,7.11,0,0,1-4.76,5.4c-18.35,7.07-36.91,13.15-56.49,16.22C991.89,793.91,976.78,792.67,961.71,794Z" transform="translate(-637 -217)"/><path class="cls-6" d="M980.84,669.74c0-13.76,0-26.52,0-39.29,0-5.26-.77-6.12-6.12-6.17q-14.85-.15-29.71,0c-5.1,0-5.88.87-5.88,5.84,0,10.93.09,21.85.08,32.78,0,2-.35,3.93-.51,5.65-.59.29-.73.41-.89.42-11.22,1.37-12.49.62-14.33-10.31-1.27-7.59-2.68-15.3-.2-22.93,2.13-6.57,5.21-12.55,12.47-14.65a43,43,0,0,1,9-1.13,186.25,186.25,0,0,1,36.19.66,13.4,13.4,0,0,1,9.44,5.12,29.49,29.49,0,0,1,6.08,13.08c1.45,8.06-.34,22.64-4.2,30.34Z" transform="translate(-637 -217)"/><path class="cls-7" d="M951.11,297.3c6.28,5.27,12.5,5.24,18.87,0,4.27,1.79,7.32,5.17,9.93,8.8a10.29,10.29,0,0,1,1.47,6.13c-.4,7.34-4.57,13.2-8.34,19.13-.59.94-2.19,1.5-3.43,1.72a53.15,53.15,0,0,1-19,0c-1.23-.22-2.85-.75-3.45-1.68-3.72-5.76-7.55-11.5-8.4-18.61a9.55,9.55,0,0,1,2.62-8.28C944.17,301.58,946.79,298.5,951.11,297.3Z" transform="translate(-637 -217)"/><path class="cls-8" d="M1082.27,461.1c.5,5,.43,5.16-2.54,6.3l-48.93,18.74a41.69,41.69,0,0,1-15.2,2.86q-55.73-.11-111.44,0a39.26,39.26,0,0,1-14.23-2.64c-16.48-6.28-32.91-12.69-49.42-18.88-3.25-1.21-3.15-3.35-2.9-6.56,2.52,1,4.69,1.72,6.8,2.6,6.48,2.72,12.91,5.57,19.43,8.21,8.55,3.45,17.27,6.5,25.7,10.22a33.22,33.22,0,0,0,14,2.75c39.67-.09,79.34,0,119-.06,2.54,0,5.16-1.2,7.61-2.19,7.61-3.07,15.15-6.3,22.72-9.47,6.5-2.72,13-5.48,19.51-8.15C1075.63,463.51,1078.92,462.36,1082.27,461.1Z" transform="translate(-637 -217)"/><path class="cls-9" d="M1000.3,709.65c2.51,12.38,7.73,23.63,8.83,36.24-3.16,0-3.79-1.76-4.35-4-2.61-10.26-5.35-20.48-8-30.7a4.69,4.69,0,0,0-.53-1,12.67,12.67,0,0,0-8.66-1c-1.24.32-2.66-.07-4-.07l-44.17.12H927.91a19.94,19.94,0,0,0-1.32,2.81q-3.9,14.87-7.73,29.75c-.55,2.16-1.05,4.3-4.44,4,1.2-12.36,6.2-23.66,8.87-36.13-4.35-1.12-8.53-2.1-12.65-3.27-7.73-2.19-15.54-4.2-23.12-6.85-5.2-1.83-10.11-4.51-15-7-2.91-1.48-3-2-3.42-5,1.35.52,2.57.91,3.73,1.45,14.34,6.69,29.35,11.53,44.52,15.89,9.24,2.66,18.7,1.7,28.08,1.76,9.06.05,18.12-.33,27.19-.41,7.2-.07,14.44.42,21.6-.09a86.6,86.6,0,0,0,17.81-3.09c12.56-3.66,25.13-7.43,36.29-14.65a12.43,12.43,0,0,1,3.61-1.75c.8-.21,2.41.11,2.55.54a3.6,3.6,0,0,1-.34,3.06,16.57,16.57,0,0,1-4.52,3.14c-11.17,5.48-22.44,10.64-34.89,12.68C1009.94,706.87,1005.33,708.39,1000.3,709.65Z" transform="translate(-637 -217)"/><path class="cls-10" d="M985.56,615.66H933.43c-.31-4.42,2.14-6.51,5.45-7.77,10.69-4,21.64-6,33-3.58a51.64,51.64,0,0,1,8.25,2.18C985,608.36,986.47,611.14,985.56,615.66Z" transform="translate(-637 -217)"/><path class="cls-11" d="M993.88,604.85c2.81-3.92,5.55-7.89,8.5-11.7a5,5,0,0,1,3-1.32c6.18-.92,6.77-1.07,7.77-7.19,1.22-7.44,2-15,2.68-22.48,1.85-21.06,3.52-42.14,5.27-63.21.16-1.91-.25-4.07,1.93-5.25,2.45.74,2,2.61,1.88,4.17-.73,10.21-1.43,20.43-2.34,30.63-.68,7.69-1.79,15.34-2.45,23-.35,4,.05,8.06-.24,12.06-.57,8-1.31,16-2.14,24a6.53,6.53,0,0,1-1.73,3.35c-3.46,3.88-7,7.65-10.6,11.42-3.07,3.24-7.2,2.8-11,3.44Z" transform="translate(-637 -217)"/><path class="cls-12" d="M926.88,605.77c-6.32-.3-11-1-14.22-5.83a36.45,36.45,0,0,0-7.24-7.65,8.74,8.74,0,0,1-3.27-6.91c-.56-9.86-1.08-19.72-1.87-29.56s-2-19.35-2.82-29-1.49-19.41-2.22-29.11c-.12-1.52-.33-3.05,1.44-3.87,2.4.35,2.14,2.23,2.27,3.85.63,8,1.16,16.06,1.87,24.09q2.59,29.31,5.34,58.61a37.69,37.69,0,0,0,.83,4.44c1.28,5.77,1.69,6.09,7.47,7a5,5,0,0,1,2.95,1.36C920.42,597,923.24,600.89,926.88,605.77Z" transform="translate(-637 -217)"/><path class="cls-13" d="M986.64,464.07c-7,3.39-14.62.57-20.49,5,4.56,2.74,9.58.63,14.45,1.44-5.88,8.6-33,9.27-41.22.35,4.94-1.54,10.24,1.23,16-1.88-4.1-2.22-7.57-2.11-10.87-2.62A43,43,0,0,1,934.29,464c.6-.36,1.2-1,1.8-1q24.13-.06,48.29,0C984.79,463,985.21,463.36,986.64,464.07Z" transform="translate(-637 -217)"/><path class="cls-14" d="M910.52,773.21c11.21,1.1,22.51,2.65,33.85,3.2,11.54.56,23.14.56,34.68,0,11.38-.55,22.71-2.1,34.17-3.23.49,3.08-1.18,3.73-3.06,4-4.12.71-8.26,1.36-12.4,2-14.34,2.18-28.78.61-43.16,1.18A200.25,200.25,0,0,1,919,778.33a57.93,57.93,0,0,1-6.4-1.27C911.13,776.67,909.75,776,910.52,773.21Z" transform="translate(-637 -217)"/><path class="cls-15" d="M949.94,346a11.56,11.56,0,0,1-.4,2.23c-6.11,15.4-56.1,121.56-58.79,124.74-1.67-1.42-.37-2.77.16-3.93,4.9-10.69,9.9-21.34,14.81-32,6.45-14.05,12.82-28.13,19.3-42.16,1.11-2.42,2.73-4.62,3.84-7.05,2.51-5.48,4.79-11.06,7.27-16.55q5.4-11.94,11-23.8a10.3,10.3,0,0,1,1.73-2Z" transform="translate(-637 -217)"/><path class="cls-16" d="M850.27,554.44c1,3.31,2.13,5.58,2.33,7.93a17.87,17.87,0,0,0,4.18,10c5.5,6.75,11,13.52,16.67,20.13a13,13,0,0,0,4.59,2.9q11,5,22.1,9.71c2.43,1,3.9,2.39,3.06,5.54a18.78,18.78,0,0,1-2.4-.7c-9.07-4-18.15-7.87-27.16-12a13.9,13.9,0,0,1-4.37-3.25c-4.61-5.09-9.22-10.2-13.56-15.52-5.22-6.41-6.79-14.07-6.74-22.14C849,556.59,849.47,556,850.27,554.44Z" transform="translate(-637 -217)"/><path class="cls-17" d="M970.41,345.61c.39.26,1,.43,1.13.79q29.07,62.6,58.07,125.22c.16.34-.13.9-.24,1.53-2.47.09-2.5-2-3.11-3.32-5.85-12.46-11.6-25-17.39-37.47q-19-40.92-37.92-81.83c-.65-1.42-1.13-2.91-1.69-4.37Z" transform="translate(-637 -217)"/><path class="cls-18" d="M1071,556.07a38.81,38.81,0,0,1,.36,10.66c-.5,5.74-1.61,11.08-6.22,15.36-3,2.81-5.14,6.59-7.73,9.89a21.76,21.76,0,0,1-9.45,7.15c-7.65,3-15.1,6.47-22.63,9.75-1.52.66-3.07,1.27-4.8,2-1-3,.09-4.48,2.63-5.61,6.89-3,13.59-6.58,20.58-9.37,6.32-2.53,11.39-6.25,15-12a15.64,15.64,0,0,1,1.2-1.61c5.71-7.09,9.47-14.94,9.48-24.25a7.66,7.66,0,0,1,.47-1.9Z" transform="translate(-637 -217)"/><path class="cls-19" d="M920.89,768c.58-3,1.93-2.63,3.3-2.45,7.79,1,15.56,2.55,23.39,2.9,13.2.6,26.45,1.07,39.61-1,4.13-.65,8.25-1.36,12.39-1.91,1-.12,2,.32,3.62.6-.8,1.08-1.07,1.87-1.54,2-6,1.89-11.9,4.15-18.51,4-14.41-.31-28.84-.25-43.26,0C933.12,772.36,927.27,769.68,920.89,768Z" transform="translate(-637 -217)"/><path class="cls-20" d="M930.51,761.65c.67-4.36.67-4.35,4-3.93,8.31,1,16.61,2.33,25,3,10,.87,19.65-2,29.48-3,3.74-.4,3.74-.48,3.75,4C975.29,765.64,949.57,765.84,930.51,761.65Z" transform="translate(-637 -217)"/><path class="cls-21" d="M1033.61,622.13c-.49,6.08-.87,10.7-1.25,15.47l-13.88,5.88c0-5.11-.11-9.54.09-14a3.62,3.62,0,0,1,1.89-2.58C1024.44,625.31,1028.52,624,1033.61,622.13Z" transform="translate(-637 -217)"/><path class="cls-22" d="M905,643.41l-13.72-5.84c-.42-4.94-.82-9.57-1.31-15.19,4.92,2,9.2,3.69,13.4,5.57a3.11,3.11,0,0,1,1.56,2.27C905,634.37,905,638.52,905,643.41Z" transform="translate(-637 -217)"/><path class="cls-23" d="M956.68,452.59a138.44,138.44,0,0,1-24.78.19c3.62-5.43,6.87-9.52,13.53-8.94,3.61.31,7.3-.34,11.25-.57Z" transform="translate(-637 -217)"/><path class="cls-24" d="M875.76,658.23c1.75.66,3.13,1.07,4.42,1.68,5.29,2.52,10.65,4.92,15.8,7.7A46.77,46.77,0,0,0,919.14,673c4.36,0,8.72,0,13.08.05,1.17,0,2.35-.05,3.52,0,1.37.11,3,.4,2.68,2.15-.1.64-1.73,1.43-2.66,1.44q-12.81.1-25.62-.09a10.6,10.6,0,0,1-4.37-.87q-13.32-6.54-26.51-13.33C877.8,661.67,875.78,661.16,875.76,658.23Z" transform="translate(-637 -217)"/><path class="cls-25" d="M1044.51,660a41.32,41.32,0,0,1-3.91,2.59c-6.73,3.44-13.56,6.68-20.23,10.24a28.52,28.52,0,0,1-14.32,3.78c-6.88-.13-13.76.35-20.64.54a9.53,9.53,0,0,1-3-.25,2,2,0,0,1-1-1.54c0-.53.51-1.45.94-1.54a24,24,0,0,1,4.48-.45c6.38-.15,12.77-.43,19.15-.32,5.76.11,10.83-2,15.85-4.32,6.25-2.89,12.39-6,18.61-8.93a19,19,0,0,1,3.51-.89Z" transform="translate(-637 -217)"/><path class="cls-26" d="M934.63,752.64c1.59-3.22,3.31-2.06,4.87-1.82,9.3,1.42,18.61,3,28.06,2.08,5.68-.53,11.32-1.41,17-2.2,1.47-.21,3-1,4.22,1.25-3.71,3.63-8.86,3.37-13.31,4C961.8,758,948.24,757.45,934.63,752.64Z" transform="translate(-637 -217)"/><path class="cls-27" d="M987.3,452.78H963.53c-.19-3.18-.35-6-.54-9.32,6.23-.1,12.2-.33,17.68,1.32,2.9.87,5,4.52,7.4,6.92Z" transform="translate(-637 -217)"/><path class="cls-28" d="M1031.93,642.11c-.35,4.55-.58,8.19-1,11.81a2.86,2.86,0,0,1-1.16,2c-3.67,1.83-7.43,3.49-11.76,5.48-1.46-4.73-.68-8.64-.19-12.49.07-.63,1-1.36,1.68-1.66C1023.32,645.62,1027.17,644.08,1031.93,642.11Z" transform="translate(-637 -217)"/><path class="cls-29" d="M938,700.44c-2.43,1.66-4.12.32-5.42-1.6a27.56,27.56,0,0,1-4.88-17.91h10C938.67,683.88,938.85,694.37,938,700.44Z" transform="translate(-637 -217)"/><path class="cls-30" d="M891.9,642.24c4.48,1.85,8.49,3.39,12.37,5.2a3.71,3.71,0,0,1,1.68,2.7c.21,3.14.08,6.3.08,9.8a8,8,0,0,1-2.78.31c-9.77-2.73-11-4.27-11.35-14.43C891.86,644.85,891.9,643.88,891.9,642.24Z" transform="translate(-637 -217)"/><path class="cls-31" d="M1038.27,620.45l13-5.12c-.78,5.19-1.34,9.43-2.11,13.64a3.48,3.48,0,0,1-1.75,2.16c-3.13,1.47-6.36,2.73-10.31,4.38C1037.53,630.15,1037.88,625.57,1038.27,620.45Z" transform="translate(-637 -217)"/><path class="cls-32" d="M886.61,635.57c-4-1.67-7.24-2.92-10.37-4.39a3.54,3.54,0,0,1-1.78-2.17c-.78-4.23-1.35-8.5-2.14-13.75,4.31,1.75,7.71,3,11,4.52a3.4,3.4,0,0,1,1.78,2.13C885.71,626.16,886.08,630.44,886.61,635.57Z" transform="translate(-637 -217)"/><path class="cls-33" d="M950.06,535.23c7.24,4.89,6.64,3.73,12.26-1.15.55,3.75,1,7.09,1.57,10.61l3.55.19a14.93,14.93,0,0,1-1.07,1.86c-4.3,5.35-8.65,5.31-12.42-.43C951.8,543.05,950,539.79,950.06,535.23Z" transform="translate(-637 -217)"/><path class="cls-34" d="M981.64,699.9V680.77H991c.93,6.79-1.06,12.74-4.82,18.24C985.16,700.55,983.78,701.27,981.64,699.9Z" transform="translate(-637 -217)"/><path class="cls-35" d="M1068.73,548.12c-1.64,1.13-2.6,2.15-3.77,2.54-12.65,4.24-25.34,8.38-38,12.54l-.78-.86c.39-.91.54-2.14,1.22-2.63a13.13,13.13,0,0,1,3.73-1.46c7.17-2.33,14.38-4.59,21.54-7,3.49-1.17,6.89-2.59,10.35-3.87C1065.38,546.51,1065.46,546.54,1068.73,548.12Z" transform="translate(-637 -217)"/><path class="cls-36" d="M959.66,738.22a52,52,0,0,1,.36,7.41,3.91,3.91,0,0,1-2.23,2.81,14.91,14.91,0,0,1-10.71-.65c-3-1.45-3.53-3.86-1.51-6.54,1.52-2,3.37-3.67,6.2-3.55,1,0,2-.17,3-.1C956.23,737.71,957.69,738,959.66,738.22Z" transform="translate(-637 -217)"/><path class="cls-37" d="M964.47,737.79a74.84,74.84,0,0,1,8.09.08,9.07,9.07,0,0,1,3.92,1.85c1.85,1.33,3.48,3.35,2.34,5.53-.8,1.52-3,2.33-4.58,3.42-.25.18-.65.13-1,.18C964.32,750.23,962.11,747.72,964.47,737.79Z" transform="translate(-637 -217)"/><path class="cls-38" d="M1048.08,669c-1,3-3.75,4.38-6.09,5.62-5,2.66-10.32,4.75-15.51,7.06-1.68.75-3.24.85-4.59-1.34.6-.74,1.12-1.88,2-2.38,5.67-3.22,11.36-6.39,17.16-9.37C1043.23,667.42,1045.72,666.55,1048.08,669Z" transform="translate(-637 -217)"/><path class="cls-39" d="M875.15,668.17c2.11-.18,3.81-.8,5.15-.35,7.67,2.56,14.43,6.86,21,11.54.21.15.2.61.32,1a2.57,2.57,0,0,1-3.6,1.55c-7.44-3-15.11-5.55-21.3-10.94C876.12,670.52,875.92,669.63,875.15,668.17Z" transform="translate(-637 -217)"/><path class="cls-40" d="M1047.47,487.44c-5.33,6.93-10.2,14.23-16.29,20.55l-1-.39c.66-4.06,1.24-8.13,2-12.17.64-3.27,2.8-5.11,6-6,2.87-.77,5.66-1.85,8.49-2.79Z" transform="translate(-637 -217)"/><path class="cls-41" d="M1035.14,653.42c.51-5,.92-9,1.36-13.32l11-4.56c.61,4.34-.59,8-1.29,11.64-.15.77-1.22,1.55-2,2C1041.47,650.53,1038.73,651.74,1035.14,653.42Z" transform="translate(-637 -217)"/><path class="cls-42" d="M888.31,653.36c-3.71-1.74-6.58-3-9.34-4.45a3.72,3.72,0,0,1-1.78-2.2c-.65-3.39-1.06-6.84-1.62-10.74,4.16.49,7.29,2.32,10.43,3.92.78.39,1.23,1.91,1.37,3C887.78,646,888,649.12,888.31,653.36Z" transform="translate(-637 -217)"/><path class="cls-43" d="M893.63,562.89c-10.28-3.45-20.37-6.81-30.46-10.21a37.36,37.36,0,0,1-6-2.4c-.75-.41-1-1.81-1.4-2.75a13.25,13.25,0,0,1,2.63-.74,4.79,4.79,0,0,1,1.93.51q15.5,5.84,31,11.69C892.92,559.6,894.38,560.21,893.63,562.89Z" transform="translate(-637 -217)"/><path class="cls-44" d="M1051.5,444.05l-13,5.11c-3.5-5.15-3.06-7.64,1.43-9.71,3-1.37,6.12-2.43,9.48-3.75.67,1.87,1.23,3.22,1.62,4.62A31.11,31.11,0,0,1,1051.5,444.05Z" transform="translate(-637 -217)"/><path class="cls-45" d="M957.09,438H944.76a98.1,98.1,0,0,1,12.33-18.08Z" transform="translate(-637 -217)"/><path class="cls-46" d="M868.53,443.05l1.8-6.86c4.47.41,8.18,2.26,11.76,4.25,2.17,1.21,2.69,5.21,1,7.11a3.61,3.61,0,0,1-3,.82A26,26,0,0,1,868.53,443.05Z" transform="translate(-637 -217)"/><path class="cls-47" d="M964.63,284.86h-8V269.24h8Z" transform="translate(-637 -217)"/><path class="cls-48" d="M963,438V420.72A16,16,0,0,1,965.6,423q4.29,5.88,8.37,11.9a12,12,0,0,1,.94,3.15Z" transform="translate(-637 -217)"/><path class="cls-49" d="M889.26,508.34c-5.94-6.2-10.45-12.89-15.46-19.5C885.15,488.79,890.31,495.21,889.26,508.34Z" transform="translate(-637 -217)"/><path class="cls-50" d="M946.52,658V647.91l10.7-.69V658Z" transform="translate(-637 -217)"/><path class="cls-51" d="M1049.81,459.72c-1-3.07-.21-5,1.78-5.84,5.48-2.45,11.08-4.66,16.66-6.91,1.81-.73,2.81.26,3.62,2.44C1065.15,453.89,1057.76,457,1049.81,459.72Z" transform="translate(-637 -217)"/><path class="cls-52" d="M924.74,556.12c-3.63,0-7.27.17-10.89,0s-4.28-.92-4.71-4.48c-.33-2.79-.49-5.6-.82-9.44l16.73,13Z" transform="translate(-637 -217)"/><path class="cls-53" d="M851.65,448.09c1.24-.37,2.71-1.38,3.69-1,5.65,2.09,11.25,4.35,16.72,6.87,2.08,1,3.08,3,1.5,5.65a105,105,0,0,1-22-10Z" transform="translate(-637 -217)"/><path class="cls-54" d="M973.48,647.81V658H962.87v-10.2Z" transform="translate(-637 -217)"/><path class="cls-55" d="M995.26,555.11l16.58-13c-.35,4-.68,7.07-.87,10.15a3.59,3.59,0,0,1-3.83,3.74c-3.8.11-7.6,0-11.4,0Z" transform="translate(-637 -217)"/><path class="cls-56" d="M1053.26,434.29c2.77-1.11,4.72-2.08,6.78-2.66,1.18-.33,2.91-.55,3.75.06,1.65,1.2,3.64,2.84,4,4.62.51,2.37-2.35,2.81-4.09,3.63-1.92.9-4,1.59-6.39,2.55Z" transform="translate(-637 -217)"/><path class="cls-57" d="M866.88,434.36c-1.46,3-2.63,5.33-4.06,8.23-3.15-1.33-6.09-2.38-8.85-3.8-2.27-1.17-2.37-3-.65-4.89,2.57-2.86,4.25-3.29,8-1.89C863,432.65,864.61,433.4,866.88,434.36Z" transform="translate(-637 -217)"/><path class="cls-58" d="M962.25,633.94h11.17v9.34H962.76C962.59,640.15,962.44,637.38,962.25,633.94Z" transform="translate(-637 -217)"/><path class="cls-59" d="M946.51,633.93h10.73c1.23,3.19.54,6.08-.11,9.29H946.51Z" transform="translate(-637 -217)"/><path class="cls-60" d="M905.45,496.07h13c-1.38,3-5.74,7.64-12,12.55C904.66,504.75,905.3,500.85,905.45,496.07Z" transform="translate(-637 -217)"/><path class="cls-61" d="M1015,496.92c-.21,3.93-.42,7.7-.62,11.46l-1.08.44-12.48-12.2A21.89,21.89,0,0,1,1015,496.92Z" transform="translate(-637 -217)"/><path class="cls-62" d="M955.33,725.05c3.63.05,5.15,1.65,5.1,5.33,0,3.22-2.42,5.26-6,5.19-3.34-.06-5.17-1.79-5.12-4.81C949.33,726.9,951.37,725,955.33,725.05Z" transform="translate(-637 -217)"/><path class="cls-63" d="M881.51,434.13l-9.09-3.57c1-4.46,3-8.13,5.06-11.91C881.26,421.19,883.2,428.72,881.51,434.13Z" transform="translate(-637 -217)"/><path class="cls-64" d="M968.88,735.57c-3.7-.11-5.71-2.09-5.63-5.53.09-3.63,1.67-5.09,5.38-5s5.9,2.34,5.8,6.07C974.35,733.91,972.15,735.68,968.88,735.57Z" transform="translate(-637 -217)"/><path class="cls-65" d="M960.71,392.82c.66,1.59,1.8,3.15,1.89,4.76.25,4.34.08,8.71,0,13.06,0,1.6-.43,3.17-2.34,3.29-2.24.13-2.76-1.54-2.78-3.35-.06-4.36-.22-8.72,0-13.06.1-1.6,1.26-3.14,1.94-4.71Z" transform="translate(-637 -217)"/><path class="cls-66" d="M1038.75,434.16c-1.66-4.85-.26-11.56,3.31-15.75,3,3.38,4.12,7.45,5.81,12Z" transform="translate(-637 -217)"/><path class="cls-67" d="M878.76,414.74c-.64-.54-1.42-.95-1.75-1.59-.23-.44.12-1.23.31-1.83a1.44,1.44,0,0,1,.66-.72c4.66-2.54,9.27-5.16,14-7.45.79-.38,2.29.73,3.46,1.16-.49.9-.76,2.17-1.52,2.65-3.53,2.19-7.16,4.22-10.83,6.19A32.07,32.07,0,0,1,878.76,414.74Z" transform="translate(-637 -217)"/><path class="cls-68" d="M1024.85,403.36c1.5.08,3.2-.26,4.47.32,4,1.82,7.75,4,11.57,6.06a5.64,5.64,0,0,1,1.9,1.59,2.1,2.1,0,0,1,.32,1.82,2.76,2.76,0,0,1-1.9,1.25,7.67,7.67,0,0,1-3.38-.86q-6.21-3.33-12.29-6.93c-.6-.35-.84-1.29-1.24-2Z" transform="translate(-637 -217)"/><path class="cls-69" d="M931,308.27c.22-6.55,4.86-9.12,8.26-12.51,6.62-6.61,14.64-8.56,24.93-7.44-1.62,1.17-2.22,1.86-2.94,2.05a10.35,10.35,0,0,1-3,.14c-12.3-.4-19.42,7.19-25.47,16.45C932.59,307.21,932.24,307.35,931,308.27Z" transform="translate(-637 -217)"/><path class="cls-70" d="M914.83,767.52c-.85.67-1.21,1.19-1.63,1.25-6.42.89-12.29-.76-17.73-4.09a2.31,2.31,0,0,1-.76-2.08,2.37,2.37,0,0,1,1.91-1.17,22,22,0,0,1,4.42.88c3.71,1,7.42,2,11.08,3.11C913,765.71,913.75,766.65,914.83,767.52Z" transform="translate(-637 -217)"/><path class="cls-71" d="M1009.06,767.14c.49-.55.75-1.12,1.14-1.24,5.25-1.51,10.51-3,15.78-4.4a2.45,2.45,0,0,1,1.46-.07,2.6,2.6,0,0,1,1.46,1.14,2.15,2.15,0,0,1-.41,1.77c-2.78,3.26-14.75,5.79-18.78,4C1009.48,768.24,1009.4,767.79,1009.06,767.14Z" transform="translate(-637 -217)"/><path class="cls-72" d="M899.27,752a41.39,41.39,0,0,1,4.94.48c5.18,1.22,10.34,2.54,15.5,3.85a4.21,4.21,0,0,1,1.83.74,2.49,2.49,0,0,1,.66,1.68c0,.36-.55.77-.94,1a1.44,1.44,0,0,1-1,.16c-6.91-1.05-13.87-2-20.1-5.5C899.88,754.28,899.85,753.6,899.27,752Z" transform="translate(-637 -217)"/><path class="cls-73" d="M1024,752.77c-2.21,3.39-6.26,4.91-17.64,6.73-1.83.3-3.91,1.44-5.41-1.32.65-.54,1.18-1.31,1.86-1.48q9.71-2.43,19.47-4.65C1022.71,751.94,1023.34,752.5,1024,752.77Z" transform="translate(-637 -217)"/><path class="cls-74" d="M1051.11,429.7c-1.67-4.81-3.11-8.94-4.75-13.67,5.79,1.36,8.55,5.49,12.52,9.24Z" transform="translate(-637 -217)"/><path class="cls-75" d="M869.08,429.7l-7.69-4.17c3.49-4,6.51-7.83,12.46-9.66C872.2,420.64,870.78,424.78,869.08,429.7Z" transform="translate(-637 -217)"/><path class="cls-76" d="M892,568.47c-2.14.31-3.18.8-3.91.52-6.52-2.5-13-5.12-19.43-7.78-.19-.07-.07-.87-.12-1.74,7.51.32,13.6,4.66,20.48,6.25C889.83,565.9,890.42,567,892,568.47Z" transform="translate(-637 -217)"/><path class="cls-77" d="M1053,560.07c-1,1-1.62,2-2.47,2.3-5.57,2.22-11.18,4.31-16.8,6.4-.75.27-1.83.59-2.37.26s-.78-1.44-.9-2.24c0-.25.64-.78,1.07-.92q9.71-3.29,19.43-6.45C1051.37,559.3,1051.89,559.69,1053,560.07Z" transform="translate(-637 -217)"/><path class="cls-78" d="M1033,685.34a2.29,2.29,0,0,1-.53-1.27,3,3,0,0,1,1-2.07c3.3-2,6.69-3.84,10.06-5.73.29-.16.69-.38.94-.3.72.25,1.75.48,2,1a2.3,2.3,0,0,1-.5,2.16c-3.63,2.09-7.35,4-11.06,6A9.1,9.1,0,0,1,1033,685.34Z" transform="translate(-637 -217)"/><path class="cls-79" d="M900.33,773.81c-5.35,1.79-9.91-1-14.61-2.86-1.34-.53-1.26-.73-1.79-4.1l16.75,5.72C900.56,773,900.44,773.4,900.33,773.81Z" transform="translate(-637 -217)"/><path class="cls-80" d="M878.43,675.78a11.6,11.6,0,0,1,1.8.58c3.22,1.79,6.46,3.53,9.58,5.48.64.4.78,1.61,1.15,2.44-.86.25-2,1-2.55.67-3.61-1.73-7.15-3.64-10.62-5.64a2.47,2.47,0,0,1-.81-2.11C877.1,676.61,878,676.17,878.43,675.78Z" transform="translate(-637 -217)"/><path class="cls-81" d="M1022.8,773.73c.61-.87.79-1.46,1.14-1.58q7.49-2.61,15-5.09c.2-.07.55.31.86.5.53,1.87-.72,2.9-2.08,3.44C1033.16,772.83,1028.68,775.47,1022.8,773.73Z" transform="translate(-637 -217)"/><path class="cls-82" d="M958.26,256.7c-5.54,6.95-5.31,15.07-6.13,24-1-1.54-1.61-2.1-1.66-2.7-.53-6.08.73-11.94,2.6-17.67C953.74,258.29,955,256.49,958.26,256.7Z" transform="translate(-637 -217)"/><path class="cls-83" d="M988.27,308.27c-3-3.58-5-6.43-7.46-8.88s-5.34-4.52-8.35-7c.6-.45,1.27-1.15,1.42-1.05,5.53,3.5,10.79,7.34,14,13.23C988.35,305.37,988.13,306.55,988.27,308.27Z" transform="translate(-637 -217)"/><path class="cls-84" d="M969.15,665.32c1.27-.64,2.43-1.63,3.68-1.77,1.69-.17,3.47,1.93,2.59,2.65-3.16,2.59-.49,5.18-.68,7.7a13.22,13.22,0,0,1-.29,1.42c-3.77.8-4.48.27-3.87-2.86C971.33,668.67,971.33,668.67,969.15,665.32Z" transform="translate(-637 -217)"/><path class="cls-85" d="M890.45,760.93c-1.29.46-2.14,1.1-2.71.91a87.13,87.13,0,0,1-9.34-3.62c-.7-.32-.83-1.85-1.22-2.83a7.62,7.62,0,0,1,2.72-.42A23.39,23.39,0,0,1,890.45,760.93Z" transform="translate(-637 -217)"/><path class="cls-86" d="M1033.48,760.14c3.13-3.07,7.37-4.1,11.4-5.44,1.14-.38,2,1.29,1.46,2.44-1.22,2.39-9.87,5.06-12.45,3.83C1033.78,760.92,1033.74,760.69,1033.48,760.14Z" transform="translate(-637 -217)"/><path class="cls-87" d="M892.27,544.45c.45,2.73.9,5.46,1.49,9.09l-8.56-1.71c2.25-3,4-5.43,5.79-7.83Z" transform="translate(-637 -217)"/><path class="cls-88" d="M1035.15,551.82l-8.58,2,1.32-9.74,1-.26Z" transform="translate(-637 -217)"/><path class="cls-89" d="M972.51,254.27a12,12,0,0,1-4.25,8.27c3.13-1.32,5.31-4.67,6.22-8.38Z" transform="translate(-637 -217)"/><path class="cls-90" d="M969,341.63c-3.5,3.6-14.45,3.77-18.56,0Z" transform="translate(-637 -217)"/><path class="cls-91" d="M1043.76,572.15c-3.11,1.75-6.28,3.33-10.4,3.28,0-.88-.23-1.89,0-2a67.83,67.83,0,0,1,6.94-3.57C1042.23,569,1043.54,569.69,1043.76,572.15Z" transform="translate(-637 -217)"/><path class="cls-92" d="M888,576.27l-10.88-3.76c.27-2.57,1.34-3.19,3.17-2.87C884.23,570.32,886.82,572.15,888,576.27Z" transform="translate(-637 -217)"/><path class="cls-93" d="M878.45,766.29c-4.59-.57-8-1.15-11-4.06C871.7,760.35,875.38,761.57,878.45,766.29Z" transform="translate(-637 -217)"/><path class="cls-94" d="M1044.62,765.22c3.68-3.24,6.83-4.45,10.89-4.17C1054.29,764.57,1050.19,766.26,1044.62,765.22Z" transform="translate(-637 -217)"/><path class="cls-95" d="M864.67,460.66c-2.73,1.42-7,.49-7.69-1.67-.45-1.38.4-2.63,1.74-2.25C861,457.4,863.59,458,864.67,460.66Z" transform="translate(-637 -217)"/><path class="cls-96" d="M1060.17,460.61c1.08-2.44,3.86-4.35,5.87-4a1.69,1.69,0,0,1,1.16,2.65C1066,460.81,1062.68,461.47,1060.17,460.61Z" transform="translate(-637 -217)"/><path class="cls-97" d="M1046.89,684.33c-2.13,1.2-3.59,2.11-5.14,2.79-.19.08-.92-1.08-1.4-1.66a34.23,34.23,0,0,1,3.87-2.77C1044.54,682.52,1045.44,683.41,1046.89,684.33Z" transform="translate(-637 -217)"/><path class="cls-98" d="M888.49,749.48c5.36-.71,6.19-.33,7.56,3.14C893,753.4,890.88,752.21,888.49,749.48Z" transform="translate(-637 -217)"/><path class="cls-99" d="M1034.16,749.54c-1.67,2.6-3.67,4.14-7.16,2.71C1028.74,748.88,1031.37,748.92,1034.16,749.54Z" transform="translate(-637 -217)"/><path class="cls-100" d="M880.11,682.16l3,3.9c-.66.36-1.65,1.2-1.93,1a15.07,15.07,0,0,1-3.41-3.16c-.25-.32.52-1.43.82-2.17Z" transform="translate(-637 -217)"/><path class="cls-101" d="M964.56,297.17l5.94-11.08C970.69,290.56,968.83,293.93,964.56,297.17Z" transform="translate(-637 -217)"/><path class="cls-102" d="M983.79,319.75c.82-2.14,1.64-4.29,2.79-7.28C987.59,316.77,987.18,317.89,983.79,319.75Z" transform="translate(-637 -217)"/><path class="cls-103" d="M933.11,313.27l2.65,6.8c-3.42-1.57-3.42-1.57-3.67-6.42Z" transform="translate(-637 -217)"/><path class="cls-104" d="M978.43,332c-.46-3.63.79-5.4,4-6.93A10.09,10.09,0,0,1,978.43,332Z" transform="translate(-637 -217)"/><path class="cls-105" d="M939.73,331.3,937,326.15c3.21.54,4,2.41,4.17,4.61Z" transform="translate(-637 -217)"/></g><g id="Layer_2_copy" data-name="Layer 2 copy"><path class="cls-106" d="M793,777.07q-.87,8.94-1.84,17.32A350.87,350.87,0,0,1,748,758.63q-3.33-3.24-6.59-6.59a351.77,351.77,0,0,1-35.76-43.2q8.39-1,17.33-1.84a392.83,392.83,0,0,0,29.41,33.84q3.38,3.45,6.82,6.81A392.81,392.81,0,0,0,793,777.07ZM752.35,339.15q3.36-3.43,6.81-6.8A389.84,389.84,0,0,1,793,302.92q-.87-8.93-1.84-17.32A351.12,351.12,0,0,0,748,321.36q-3.33,3.25-6.58,6.59a350.94,350.94,0,0,0-35.77,43.2q8.39,1,17.33,1.85A393.08,393.08,0,0,1,752.35,339.15Zm408.49-6.81q3.45,3.36,6.82,6.81A391.33,391.33,0,0,1,1197.07,373q8.94-.87,17.32-1.85A350.69,350.69,0,0,0,1178.64,328q-3.26-3.34-6.6-6.59a350.92,350.92,0,0,0-43.19-35.76q-1,8.38-1.84,17.32A392.81,392.81,0,0,1,1160.84,332.34Zm6.8,408.49q-3.36,3.45-6.8,6.81A393.19,393.19,0,0,1,1127,777.07q.87,8.92,1.85,17.32a350.94,350.94,0,0,0,43.2-35.77q3.35-3.24,6.59-6.58a351.12,351.12,0,0,0,35.76-43.21q-8.37-1-17.32-1.84A389.84,389.84,0,0,1,1167.64,740.83Zm-117.8-484.36q13.62-.59,27-1.44a385,385,0,0,1,46.36,26.69q-1.32,11.4-2.44,23.89a410,410,0,0,1,35.69,31q3.49,3.41,6.9,6.89a411.84,411.84,0,0,1,31,35.7c8.31-.76,16.29-1.57,23.89-2.44A385.44,385.44,0,0,1,1245,423.14q-.85,13.38-1.45,27a67.41,67.41,0,0,0-11.62,23.48c-2.92,10.57-3.36,23.17.86,35.06,6.25,17.09,18.63,21.1,25.3,4.92a48.57,48.57,0,0,0,1.73-4.77c.65-.61,4.34-4.07,6.48,3.32,1.57,5.45,1.15,13.51-1.26,17.23-2,3-4.2,1.57-5-2.35-1.47,5,1.92,14.73,6.21,8.73a17.64,17.64,0,0,0,2.21-5.7c1.59-6.82,1.64-16.38-.14-22.82s-4.43-7.24-6.55-6.68c1.87-10.9,1.81-22.93-.78-31-3.16-10.07-10.18-9.94-15.94-.73-5.35,8.6-6.14,21.91-2.65,29.06,2.08,4.33,4.31,5.36,6.38,3.62s3.72-7.3,2.83-9.81c-.47,1.53-1.57,3.36-2.76,3.89s-2.49.15-3.87-2.81c-1.91-4-1.77-12.57,2-18.77,4.17-6.89,9.16-6.85,11.6.53,2.87,8.72,2.09,23.59-2.45,34-5.61,13-15.35,9.89-20.22-3.93a48,48,0,0,1-.64-28.6,59.16,59.16,0,0,1,10.66-21.46l1-1.15q.51-12,1.21-23.81a472.35,472.35,0,0,1,29.51,83.85c-.34,17.66-.34,35.37,0,53a472.18,472.18,0,0,1-29.51,83.86q-.7-11.8-1.22-23.81l-.95-1.15a58.92,58.92,0,0,1-10.66-21.46,48,48,0,0,1,.64-28.6c4.87-13.82,14.61-17,20.22-3.92,4.54,10.44,5.32,25.31,2.45,34-2.44,7.39-7.43,7.42-11.6.54-3.75-6.21-3.89-14.73-2-18.78,1.38-3,2.67-3.35,3.87-2.81s2.29,2.36,2.76,3.89c.89-2.51-.78-8.11-2.83-9.82s-4.3-.7-6.38,3.64c-3.49,7.15-2.7,20.45,2.65,29,5.76,9.21,12.78,9.34,15.94-.74,2.59-8.08,2.65-20.11.78-31,2.12.56,4.76-.2,6.55-6.68s1.73-16,.14-22.82a17.64,17.64,0,0,0-2.21-5.7c-4.28-6-7.68,3.74-6.21,8.73.79-3.92,3-5.33,5-2.35,2.41,3.72,2.82,11.78,1.26,17.22-2.14,7.4-5.83,3.94-6.48,3.33a49.53,49.53,0,0,0-1.73-4.77c-6.67-16.18-19-12.16-25.31,4.92-4.22,11.89-3.77,24.49-.85,35.06a67.32,67.32,0,0,0,11.62,23.48q.6,13.62,1.45,27a384.28,384.28,0,0,1-26.7,46.36c-7.59-.87-15.57-1.69-23.89-2.44a408.67,408.67,0,0,1-31,35.7q-3.4,3.49-6.89,6.89a410.38,410.38,0,0,1-35.71,31c.76,8.32,1.57,16.3,2.44,23.89a384.15,384.15,0,0,1-46.35,26.7q-13.39-.86-27-1.45a67.36,67.36,0,0,0-23.47-11.62,58.89,58.89,0,0,0-35.06.85c-17.09,6.26-21.1,18.63-4.92,25.3a47.66,47.66,0,0,0,4.77,1.74c.61.64,4.06,4.34-3.33,6.48-5.45,1.56-13.51,1.15-17.22-1.26-3-2-1.57-4.2,2.34-5-5-1.46-14.72,1.93-8.73,6.22a17.74,17.74,0,0,0,5.7,2.21c6.82,1.59,16.38,1.63,22.82-.14s7.25-4.44,6.68-6.56c10.91,1.88,22.93,1.82,31-.77,10.07-3.17,9.95-10.18.73-15.94-8.59-5.35-21.9-6.14-29.05-2.65-4.33,2.08-5.36,4.31-3.63,6.38s7.3,3.72,9.82,2.83c-1.53-.47-3.35-1.57-3.9-2.76s-.14-2.5,2.82-3.88c4-1.9,12.56-1.77,18.77,2,6.88,4.17,6.85,9.15-.54,11.6-8.72,2.86-23.59,2.09-34-2.45-13-5.61-9.9-15.36,3.92-20.22a47.93,47.93,0,0,1,28.61-.64,59.24,59.24,0,0,1,21.46,10.65l1.14,1q12,.51,23.82,1.22a473.54,473.54,0,0,1-83.86,29.51c-17.66-.35-35.37-.35-53,0a472.46,472.46,0,0,1-83.86-29.51q11.82-.7,23.82-1.22l1.14-1A59.24,59.24,0,0,1,896,815.23a47.93,47.93,0,0,1,28.61.64c13.82,4.86,17,14.61,3.92,20.22-10.44,4.54-25.31,5.32-34,2.45-7.38-2.45-7.41-7.43-.53-11.6,6.21-3.76,14.73-3.89,18.77-2,3,1.38,3.35,2.68,2.82,3.88s-2.36,2.29-3.9,2.76c2.52.89,8.11-.78,9.82-2.83s.7-4.3-3.63-6.38c-7.15-3.49-20.46-2.7-29,2.65-9.22,5.76-9.34,12.78.73,15.94,8.09,2.59,20.11,2.65,31,.77-.56,2.12.21,4.77,6.69,6.56s16,1.73,22.82.14a17.83,17.83,0,0,0,5.7-2.21c6-4.29-3.75-7.68-8.73-6.22,3.91.8,5.32,3,2.34,5-3.71,2.41-11.77,2.82-17.22,1.26-7.39-2.14-3.94-5.84-3.33-6.48a47.66,47.66,0,0,0,4.77-1.74c16.18-6.67,12.17-19-4.92-25.3-11.89-4.22-24.49-3.77-35.06-.85a67.36,67.36,0,0,0-23.47,11.62q-13.62.6-27,1.45a384.15,384.15,0,0,1-46.35-26.7c.87-7.59,1.69-15.57,2.44-23.89a410,410,0,0,1-35.69-31q-3.49-3.4-6.9-6.89a411.62,411.62,0,0,1-31-35.7q-12.48,1.13-23.89,2.44A385.44,385.44,0,0,1,675,656.85q.86-13.4,1.45-27a67.18,67.18,0,0,0,11.61-23.47,58.92,58.92,0,0,0-.85-35.07c-6.25-17.08-18.63-21.09-25.3-4.91a47.65,47.65,0,0,0-1.73,4.77c-.65.6-4.34,4.06-6.48-3.33-1.56-5.45-1.15-13.51,1.26-17.22,2-3,4.2-1.57,5,2.34,1.47-5-1.93-14.72-6.21-8.73a17.74,17.74,0,0,0-2.21,5.7c-1.59,6.82-1.64,16.38.14,22.82s4.43,7.25,6.55,6.69c-1.87,10.9-1.81,22.92.78,31,3.16,10.07,10.18,10,15.94.73,5.35-8.59,6.14-21.9,2.65-29-2.08-4.33-4.31-5.36-6.38-3.63s-3.72,7.3-2.83,9.82c.47-1.54,1.56-3.36,2.76-3.9s2.49-.14,3.87,2.82c1.91,4,1.77,12.56-2,18.77-4.17,6.88-9.16,6.85-11.6-.53-2.87-8.73-2.09-23.6,2.45-34,5.61-13,15.35-9.9,20.21,3.92a47.9,47.9,0,0,1,.65,28.6,59.22,59.22,0,0,1-10.66,21.47l-1,1.14q-.51,12-1.22,23.82a472.74,472.74,0,0,1-29.51-83.86q.51-26.49,0-53a473.24,473.24,0,0,1,29.5-83.86q.72,11.82,1.22,23.82l1,1.14a59.16,59.16,0,0,1,10.66,21.46,48,48,0,0,1-.65,28.61c-4.86,13.81-14.6,16.95-20.21,3.92-4.54-10.44-5.32-25.32-2.45-34,2.44-7.38,7.43-7.41,11.6-.53,3.75,6.2,3.89,14.73,2,18.77-1.38,3-2.67,3.35-3.87,2.81s-2.29-2.36-2.76-3.89c-.89,2.52.78,8.11,2.83,9.82s4.3.7,6.38-3.63c3.49-7.15,2.7-20.46-2.66-29.05-5.75-9.22-12.77-9.35-15.93.73-2.59,8.09-2.65,20.11-.78,31-2.12-.56-4.76.21-6.55,6.69s-1.73,16-.14,22.82a17.74,17.74,0,0,0,2.21,5.7c4.28,6,7.68-3.75,6.21-8.73-.79,3.91-3,5.33-5,2.34-2.41-3.71-2.82-11.78-1.26-17.22,2.14-7.39,5.83-3.94,6.48-3.33a47.65,47.65,0,0,0,1.73,4.77c6.67,16.18,19,12.17,25.3-4.92a58.89,58.89,0,0,0,.85-35.06,67.35,67.35,0,0,0-11.61-23.47q-.6-13.62-1.45-27a385,385,0,0,1,26.69-46.36q11.4,1.32,23.89,2.45a410.38,410.38,0,0,1,31-35.71q3.4-3.48,6.89-6.88a408.77,408.77,0,0,1,35.7-31c-.75-8.32-1.57-16.3-2.44-23.89A382.13,382.13,0,0,1,843.16,255q13.38.84,27,1.44a67.18,67.18,0,0,0,23.47,11.62,58.92,58.92,0,0,0,35.07-.85c17.08-6.25,21.1-18.63,4.91-25.3a48.37,48.37,0,0,0-4.76-1.73c-.62-.65-4.07-4.35,3.32-6.48,5.45-1.57,13.51-1.15,17.23,1.26,3,1.95,1.57,4.19-2.35,5,5,1.47,14.72-1.93,8.73-6.22a17.88,17.88,0,0,0-5.7-2.2c-6.82-1.59-16.38-1.64-22.82.13s-7.24,4.44-6.68,6.56c-10.91-1.88-22.93-1.81-31,.77-10.07,3.17-10,10.18-.73,15.94,8.59,5.35,21.9,6.14,29,2.66,4.33-2.08,5.36-4.32,3.64-6.38s-7.31-3.72-9.82-2.83c1.53.47,3.35,1.57,3.89,2.76s.14,2.49-2.82,3.87c-4,1.91-12.56,1.77-18.77-2-6.88-4.17-6.85-9.16.53-11.6,8.73-2.87,23.6-2.09,34,2.45,13,5.6,9.9,15.35-3.92,20.21a48,48,0,0,1-28.6.65,59.38,59.38,0,0,1-21.47-10.66l-1.14-1q-12-.51-23.82-1.22a473.53,473.53,0,0,1,83.86-29.5c17.66.34,35.37.34,53,0a473,473,0,0,1,83.86,29.5q-11.82.72-23.81,1.22l-1.15,1A59.16,59.16,0,0,1,1024,264.76a47.89,47.89,0,0,1-28.6-.64c-13.83-4.86-17-14.6-3.93-20.21,10.44-4.54,25.32-5.32,34-2.45,7.38,2.44,7.42,7.43.53,11.6-6.2,3.75-14.73,3.89-18.77,2-3-1.38-3.35-2.68-2.81-3.87s2.36-2.29,3.89-2.76c-2.51-.89-8.11.78-9.82,2.83s-.7,4.3,3.63,6.38c7.15,3.49,20.46,2.7,29.06-2.66,9.21-5.76,9.34-12.77-.74-15.94-8.08-2.58-20.11-2.65-31-.77.56-2.12-.2-4.76-6.68-6.56s-16-1.72-22.82-.13a18,18,0,0,0-5.71,2.2c-6,4.29,3.75,7.69,8.74,6.22-3.92-.8-5.33-3-2.35-5,3.72-2.42,11.78-2.83,17.22-1.26,7.39,2.13,3.94,5.83,3.33,6.48a46.12,46.12,0,0,0-4.77,1.73c-16.18,6.67-12.17,19.05,4.92,25.3a58.89,58.89,0,0,0,35.06.85A67.41,67.41,0,0,0,1049.84,256.47ZM948.45,226.56a81.65,81.65,0,0,1,9.3,1.38c.77.17,1.53.35,2.25.54.74-.2,1.49-.37,2.25-.54a82,82,0,0,1,9.3-1.38Q960,226.65,948.45,226.56ZM646.56,528.45q.09,11.55,0,23.09a84.47,84.47,0,0,1,1.38-9.29c.17-.76.34-1.51.54-2.25-.19-.71-.36-1.46-.53-2.22A82.48,82.48,0,0,1,646.56,528.45Zm325,325a81.38,81.38,0,0,1-9.27-1.39c-.78-.17-1.53-.34-2.26-.53-.73.19-1.48.37-2.25.53a81.57,81.57,0,0,1-9.28,1.39Q960,853.34,971.51,853.44Zm301.93-301.91q-.11-11.55,0-23.1a79.75,79.75,0,0,1-1.39,9.3c-.16.77-.34,1.52-.53,2.25.19.73.37,1.48.53,2.25A79.75,79.75,0,0,1,1273.44,551.53Zm-202.9-289.4q-7.59.42-15.25.77-2.38,1.65-5,3.19a85.14,85.14,0,0,1-19.51,8.35c-15.82,4.62-32.7,4-46.87-1.31-11.58-4.32-19.18-11.22-20.6-18.11a10.79,10.79,0,0,1,2.59-9.42,38.27,38.27,0,0,1-5.87-1,38.75,38.75,0,0,1-5.94,1c6.14,7.3,2,17.23-11.22,24.49a53.58,53.58,0,0,1-6.74,3c-14.16,5.31-31,5.92-46.87,1.3a85.28,85.28,0,0,1-24.53-11.54q-7.66-.34-15.24-.77a411.35,411.35,0,0,0-40.77,24.3q1.14,11.49,2.12,24.08a443.75,443.75,0,0,0-80.31,80.31q-12.56-1-24.08-2.13a415.25,415.25,0,0,0-24.3,40.77q.42,7.59.77,15.24a85.41,85.41,0,0,1,11.54,24.53c4.62,15.84,4,32.72-1.3,46.88a53.58,53.58,0,0,1-3,6.74c-7.26,13.26-17.18,17.35-24.49,11.21a39.09,39.09,0,0,1-1,6,37.39,37.39,0,0,1,1,5.91,10.71,10.71,0,0,1,9.42-2.64c6.89,1.43,13.8,9,18.12,20.61,5.31,14.16,5.92,31.05,1.3,46.87a85.33,85.33,0,0,1-8.35,19.51q-1.55,2.64-3.19,5-.35,7.66-.77,15.25a415.25,415.25,0,0,0,24.3,40.77q11.51-1.15,24.08-2.12a444.49,444.49,0,0,0,80.29,80.29q-1,12.57-2.11,24.09a413.92,413.92,0,0,0,40.76,24.3q7.59-.43,15.25-.78c1.59-1.09,3.26-2.16,5-3.19a85.39,85.39,0,0,1,19.51-8.35c15.81-4.61,32.7-4,46.86,1.31,11.59,4.32,19.18,11.22,20.61,18.11a10.82,10.82,0,0,1-2.6,9.43,38.26,38.26,0,0,1,5.87,1,37.9,37.9,0,0,1,5.95-1c-6.14-7.31-2-17.24,11.21-24.5a53.56,53.56,0,0,1,6.74-3c14.16-5.31,31-5.92,46.88-1.31a85.41,85.41,0,0,1,24.53,11.54q7.65.35,15.24.78a413.36,413.36,0,0,0,40.77-24.31q-1.15-11.49-2.13-24.08a445,445,0,0,0,80.31-80.31q12.57,1,24.09,2.12a412.91,412.91,0,0,0,24.3-40.77q-.42-7.57-.78-15.24a85.6,85.6,0,0,1-11.54-24.54c-4.61-15.82-4-32.7,1.31-46.86a53.58,53.58,0,0,1,3-6.74c7.26-13.27,17.18-17.36,24.49-11.22a39,39,0,0,1,1-5.94,38.79,38.79,0,0,1-1-5.91,10.7,10.7,0,0,1-9.41,2.63c-6.89-1.43-13.8-9-18.12-20.61-5.31-14.16-5.92-31-1.3-46.87a85.25,85.25,0,0,1,8.35-19.5q1.54-2.64,3.18-5c.24-5.11.49-10.19.78-15.25a413.92,413.92,0,0,0-24.3-40.76q-11.5,1.14-24.09,2.11a444.49,444.49,0,0,0-80.29-80.29q1-12.56,2.12-24.08A415.25,415.25,0,0,0,1070.54,262.13ZM995.91,217Q1236,264,1283,504.07c-.64,23.9-.64,47.93,0,71.83q-10.08,51.47-29,94.05Q1184.51,826,995.91,863c-23.9-.64-47.93-.64-71.83,0Q684,815.95,637,575.91c.64-23.9.64-47.93,0-71.84Q684.06,264,924.08,217C948,217.64,972,217.64,995.91,217Zm84.4,34.3q-41.31-19.4-90.53-30.89c-19.83.44-39.73.44-59.56,0Q881,231.91,839.68,251.3q-15.84,7.44-30.54,16.05-9.63,5.64-18.76,11.79a335.4,335.4,0,0,0-46.81,37.93q-3.3,3.21-6.5,6.5a336.12,336.12,0,0,0-37.93,46.81q-6.15,9.12-11.79,18.76-8.6,14.69-16.05,30.54Q651.92,461,640.42,510.21c.43,19.83.43,39.74,0,59.56Q651.91,619,671.3,660.31h0q7.46,15.86,16.05,30.54,5.65,9.63,11.79,18.77h0a335.89,335.89,0,0,0,37.93,46.8q3.2,3.3,6.5,6.51a336.55,336.55,0,0,0,46.8,37.92h0q9.12,6.14,18.76,11.78,14.68,8.61,30.54,16.05h0q41.33,19.38,90.53,30.88c19.83-.43,39.73-.43,59.56,0q49.22-11.51,90.53-30.89,15.85-7.44,30.55-16.05,9.63-5.64,18.76-11.79a336.12,336.12,0,0,0,46.81-37.93q3.3-3.21,6.5-6.5a335.49,335.49,0,0,0,37.93-46.82q6.15-9.12,11.79-18.76,8.61-14.69,16-30.54,19.39-41.31,30.89-90.54c-.43-19.82-.43-39.72,0-59.55q-11.5-49.21-30.89-90.53h0q-7.46-15.85-16-30.54-5.65-9.63-11.79-18.76h0a335.89,335.89,0,0,0-37.93-46.8q-3.21-3.3-6.5-6.51a336.05,336.05,0,0,0-46.81-37.92h0q-9.13-6.15-18.76-11.79-14.68-8.61-30.54-16.05Z" transform="translate(-637 -217)"/></g></svg>